SplineFontDB: 3.2
FontName: DIN-Rotring
FullName: DIN Rotring
FamilyName: DIN-Rotring
Weight: Regular

StartChar: x
Encoding: 120 120 0
Width: 529
VWidth: 1032
Flags: W
HStem: 0 21G<53 67 461 475> 527 20G<59 73 455 469>
LayerCount: 2
Back
SplineSet
460.41796875 514.5 m 5
 62.4951171875 32.5 l 1029
68.1640625 514.5 m 5
 466.0859375 32.5 l 1029
EndSplineSet
Fore
SplineSet
36 515 m 0
 36 533 50 547 68 547 c 0
 78 547 87 542 93 535 c 2
 264 328 l 1
 435 535 l 2
 441 542 450 547 460 547 c 0
 478 547 493 532 493 514 c 0
 493 506 491 500 486 494 c 2
 306 277 l 1
 491 53 l 2
 496 47 499 41 499 33 c 0
 499 15 484 0 466 0 c 0
 456 0 447 5 441 12 c 2
 264 226 l 1
 88 12 l 2
 82 5 72 0 62 0 c 0
 44 0 30 14 30 32 c 0
 30 40 32 47 37 53 c 2
 222 277 l 1
 43 494 l 2
 38 500 36 507 36 515 c 0
EndSplineSet
Validated: 1
EndChar

StartChar: U
Encoding: 85 85 1
Width: 647
Flags: W
HStem: 0 65<225.484 422.205> 748 20G<83 101 546 564>
VStem: 60 65<166.206 765.972> 522 65<166.607 765.972>
LayerCount: 2
Back
SplineSet
93.4287109375 735 m 5
 93.4287109375 256.829101562 l 6
 93.4287109375 156.587890625 158.448242188 32.5 324.473632812 32.5 c 4
 490.5 32.5 555.518554688 156.587890625 555.518554688 256.829101562 c 6
 555.518554688 735 l 1029
EndSplineSet
Fore
SplineSet
324 0 m 0
 166 0 60 109 60 257 c 2
 60 735 l 2
 60 753 74 768 92 768 c 0
 110 768 125 753 125 735 c 2
 125 257 l 2
 125 219 137 176 161 141 c 0
 191 98 241 65 324 65 c 0
 407 65 456 98 486 141 c 0
 510 176 522 219 522 257 c 2
 522 735 l 2
 522 753 537 768 555 768 c 0
 573 768 587 753 587 735 c 2
 587 257 l 2
 587 110 482 0 324 0 c 0
EndSplineSet
Validated: 1
EndChar

StartChar: D
Encoding: 68 68 2
Width: 657
VWidth: 1032
Flags: W
HStem: 0 65<125 413.755> 702 65<125 406.991>
VStem: 60 65<65 702> 542 65<217.609 546.49>
LayerCount: 2
Back
SplineSet
93 32.5 m 5
 93 735 l 5
 305.9140625 735 l 6
 481.794921875 735 575.421875 602.587890625 575.421875 399.1328125 c 6
 575.421875 368.366210938 l 6
 575.421875 153.586914062 481.794921875 32.4990234375 305.9140625 32.4990234375 c 6
 93 32.4990234375 l 5
 93 32.5 l 5
EndSplineSet
Fore
SplineSet
92 0 m 2
 75 0 60 15 60 32 c 2
 60 735 l 2
 60 753 74 767 92 767 c 2
 305 767 l 2
 422 767 501 715 548 640 c 0
 588 576 607 495 607 400 c 2
 607 368 l 2
 607 200 551 75 433 24 c 0
 395 8 352 0 305 0 c 2
 92 0 l 2
125 702 m 1
 125 65 l 1
 305 65 l 2
 397 65 456 99 493 157 c 0
 524 206 542 277 542 368 c 2
 542 400 l 2
 542 538 499 640 407 682 c 0
 378 695 344 702 305 702 c 2
 125 702 l 1
EndSplineSet
Validated: 1
EndChar

StartChar: A
Encoding: 65 65 3
Width: 700
VWidth: 1032
Flags: W
HStem: 0 21G<64 80 620 636> 192 65<197 505> 747 20G<346.5 360>
VStem: 40 63<2.01057 20> 597 63<2.00226 21>
LayerCount: 2
Back
SplineSet
551.64453125 225 m 5
 148.725585938 225 l 1029
627 32.5 m 5
 352 735 l 5
 72 32.5 l 1029
EndSplineSet
Fore
SplineSet
322 747 m 0
 327 758 340 767 353 767 c 0
 367 767 379 758 383 747 c 0
 475 513 566 278 658 44 c 0
 659 40 660 36 660 32 c 0
 660 14 645 0 627 0 c 0
 613 0 602 9 597 21 c 2
 530 192 l 1
 171 192 l 1
 103 20 l 2
 98 8 87 0 73 0 c 0
 55 0 40 14 40 32 c 0
 40 36 40 41 42 45 c 0
 322 747 l 0
505 257 m 1
 352 647 l 1
 197 257 l 1
 505 257 l 1
EndSplineSet
Validated: 1
EndChar

StartChar: B
Encoding: 66 66 4
Width: 645
VWidth: 1032
Flags: W
HStem: 0 65<125 449.215> 358 65<125 445.203> 702 65<125 425.38>
VStem: 60 65<65 358 423 702> 492 65<475.831 636.561> 530 65<139.655 295.813>
LayerCount: 2
Back
SplineSet
92 390 m 4
 92 390 292 390 387 390 c 4
 482 390 562 322.5 562 217.5 c 4
 562 112.5 482 32.5 362 32.5 c 6
 92 32.5 l 5
 92 735 l 5
 92 735 252 735 347 735 c 4
 442 735 524.5 665 524.5 562.5 c 4
 524.5 460 462 390 387 390 c 1028
EndSplineSet
Fore
SplineSet
92 0 m 2xf4
 75 0 60 15 60 32 c 0
 60 151 60 271 60 390 c 0
 60 505 60 620 60 735 c 0
 60 753 74 767 92 767 c 2
 348 767 l 2
 459 767 557 684 557 562 c 0xf8
 557 494 531 434 490 397 c 1
 551 364 595 300 595 218 c 0
 595 92 495 0 362 0 c 2
 92 0 l 2xf4
388 423 m 2
 440 423 492 472 492 562 c 0
 492 645 427 702 348 702 c 2
 125 702 l 1
 125 423 l 1
 388 423 l 2
530 218 m 0xf4
 530 301 471 358 388 358 c 2
 125 358 l 1
 125 65 l 1
 362 65 l 2
 459 65 530 126 530 218 c 0xf4
EndSplineSet
Validated: 1
EndChar

StartChar: C
Encoding: 67 67 5
Width: 619
VWidth: 1032
Flags: W
HStem: 0 65<227.56 420.192> 702 65<213.456 404.119>
VStem: 50 65<214.422 568.039> 488 64<560.986 626.186> 504 65<148.597 237.095>
LayerCount: 2
Back
SplineSet
517.340820312 591.459960938 m 4
 486.969726562 688.532226562 396.88671875 735 313.881835938 735 c 4
 192.469726562 735 81 680.587890625 81 385.571289062 c 4
 81 184.587890625 144.568359375 32.5 317.060546875 32.5 c 4
 469.500976562 32.5 525.470703125 133.587890625 534.720703125 206.606445312 c 1028
EndSplineSet
Fore
SplineSet
552 591 m 0xf0
 552 573 537 559 519 559 c 0
 504 559 492 569 488 582 c 0xf0
 463 663 387 702 315 702 c 0
 242 702 200 684 167 635 c 0
 137 591 115 514 115 386 c 0
 115 259 139 152 208 99 c 0
 236 78 272 65 319 65 c 0
 395 65 440 92 467 125 c 0
 489 152 501 184 504 211 c 0
 506 227 519 239 536 239 c 0
 554 239 569 225 569 207 c 0xe8
 569 87.7732622605 453.257272925 0 319 0 c 0
 260 0 209 16 169 47 c 0
 83 113 50 239 50 386 c 0
 50 520 72 610 113 671 c 0
 157 737 219 767 315 767 c 0
 409 767 515 714 550 601 c 0
 551 598 552 594 552 591 c 0xf0
EndSplineSet
Validated: 1
EndChar

StartChar: E
Encoding: 69 69 6
Width: 657
VWidth: 1032
Flags: W
HStem: 0 65<125 604.972> 358 65<125 538.972> 702 65<125 590.972>
VStem: 60 65<65 358 423 702>
LayerCount: 2
Back
SplineSet
507.84765625 390 m 5
 92 390 l 1029
559.581054688 735 m 5
 92 735 l 5
 92 32.5 l 5
 573.752929688 32.5 l 1029
EndSplineSet
Fore
SplineSet
92 767 m 2
 560 767 l 2
 578 767 593 753 593 735 c 0
 593 717 578 702 560 702 c 2
 125 702 l 1
 125 423 l 1
 508 423 l 2
 526 423 541 408 541 390 c 0
 541 372 526 358 508 358 c 2
 125 358 l 1
 125 65 l 1
 574 65 l 2
 592 65 607 50 607 32 c 0
 607 14 592 0 574 0 c 2
 92 0 l 2
 75 0 60 15 60 32 c 2
 60 735 l 2
 60 753 74 767 92 767 c 2
EndSplineSet
Validated: 1
EndChar

StartChar: F
Encoding: 70 70 7
Width: 618
VWidth: 1032
Flags: W
HStem: 0 21G<84 102> 358 65<125 538.972> 702 65<125 590.972>
VStem: 60 65<1.90509 358 423 702>
LayerCount: 2
Back
SplineSet
508 390 m 5
 92.15234375 390 l 1029
559.733398438 735 m 5
 92.15234375 735 l 5
 92.15234375 32.5 l 1029
EndSplineSet
Fore
SplineSet
60 32 m 0
 60 52 60 735 60 735 c 2
 60 753 75 767 93 767 c 2
 560 767 l 2
 578 767 593 753 593 735 c 0
 593 717 578 702 560 702 c 2
 125 702 l 1
 125 423 l 1
 508 423 l 2
 526 423 541 408 541 390 c 0
 541 372 526 358 508 358 c 2
 125 358 l 1
 125 32 l 2
 125 14 111 0 93 0 c 0
 75 0 60 14 60 32 c 0
EndSplineSet
Validated: 1
EndChar

StartChar: G
Encoding: 71 71 8
Width: 648
VWidth: 1032
Flags: W
HStem: 0 65<221.062 426.732> 334 65<358.905 532> 702 66<216.09 418.133>
VStem: 50 65<196.796 570.416> 494 63<567.793 627.1> 532 66<184.55 334>
LayerCount: 2
Back
SplineSet
524.7734375 598.892578125 m 1024
524.7734375 598.892578125 m 0
 491.54296875 685.672851562 427.0390625 735 318.133789062 735 c 0
 142.875976562 735 82.6064453125 607.25390625 82.6064453125 401.25390625 c 2
 82.6064453125 366.247070312 l 2
 82.6064453125 160.24609375 142.876953125 32.5 318.133789062 32.5 c 0
 511.962890625 32.5 565 148.587890625 565 366.247070312 c 1
 389.30078125 366.247070312 l 1025
EndSplineSet
Fore
SplineSet
525 566 m 1024xf0
50 401 m 2
 50 609 111 768 318 768 c 0
 445 768 519 703 555 610 c 0
 556 606 557 603 557 599 c 0
 557 581 543 566 525 566 c 0
 511 566 499 575 494 587 c 0xf8
 466 661 417 702 318 702 c 0
 230 702 182 670 152 611 c 0
 127 562 115 490 115 401 c 2
 115 366 l 2
 115 277 127 206 152 157 c 0
 182 98 230 65 318 65 c 0
 488 65 527 163 532 334 c 1
 389 334 l 2
 371 334 357 348 357 366 c 0
 357 384 371 399 389 399 c 2
 565 399 l 2
 585 399 598 382 598 366 c 0xf4
 598 144 539 0 318 0 c 0
 111 0 50 158 50 366 c 2
 50 401 l 2
EndSplineSet
Validated: 1
EndChar

StartChar: p
Encoding: 112 112 9
Width: 585
VWidth: 1032
Flags: W
HStem: 0 65<186.974 369.266> 482 65<186.974 369.686>
VStem: 60 65<-218.095 50 117.359 429.641 497 530.972> 470 65<171.757 376.264>
LayerCount: 2
Back
SplineSet
92.087890625 -188 m 5
 92.087890625 500.328125 l 1029
92.087890625 134.5546875 m 4
 127.833984375 73.9228515625 191.833984375 32.5 278.408203125 32.5 c 4
 402.196289062 32.5 502.357421875 127.74609375 502.357421875 273.5 c 4
 502.357421875 419.25390625 403.198242188 514.500976562 278.408203125 514.500976562 c 4
 191.833984375 514.500976562 127.833984375 473.078125 92.087890625 412.446289062 c 1028
EndSplineSet
Fore
SplineSet
535 274 m 0
 535 118 426 0 279 0 c 0
 218 0 166 19 125 50 c 1
 125 -188 l 2
 125 -206 111 -220 93 -220 c 0
 75 -220 60 -206 60 -188 c 2
 60 500 l 2
 60 518 75 533 93 533 c 0
 111 533 125 518 125 500 c 2
 125 497 l 1
 166 528 218 547 279 547 c 0
 427 547 535 431 535 274 c 0
470 274 m 0
 470 395 393 482 279 482 c 0
 207 482 156 450 125 403 c 1
 125 144 l 1
 156 97 207 65 279 65 c 0
 392 65 470 153 470 274 c 0
EndSplineSet
Validated: 1
EndChar

StartChar: H
Encoding: 72 72 10
Width: 638
VWidth: 1032
Flags: W
HStem: 0 21G<84 102 536 554> 358 64<125 513> 748 20G<84 102 536 554>
VStem: 60 65<2.01724 358 422 765.972> 513 65<2.01724 358 422 765.972>
LayerCount: 2
Back
SplineSet
92.580078125 735.000976562 m 5
 92.580078125 32.5 l 1029
545.00390625 735.000976562 m 5
 545.00390625 32.5 l 1029
92.580078125 390 m 5
 545.00390625 390 l 1029
EndSplineSet
Fore
SplineSet
60 735 m 2
 60 753 75 768 93 768 c 0
 111 768 125 753 125 735 c 2
 125 422 l 1
 513 422 l 1
 513 735 l 2
 513 753 527 768 545 768 c 0
 563 768 578 753 578 735 c 2
 578 32 l 2
 578 15 563 0 545 0 c 0
 527 0 513 15 513 32 c 2
 513 358 l 1
 125 358 l 1
 125 32 l 2
 125 15 111 0 93 0 c 0
 75 0 60 15 60 32 c 2
 60 735 l 2
EndSplineSet
Validated: 1
EndChar

StartChar: I
Encoding: 73 73 11
Width: 195
VWidth: 1032
Flags: W
HStem: 0 21G<88 106> 748 20G<88 106>
VStem: 65 65<1.90509 765.972>
LayerCount: 2
Back
SplineSet
98 735.000976562 m 5
 98 32.5 l 1029
EndSplineSet
Fore
SplineSet
65 735 m 2
 65 753 79 768 97 768 c 0
 115 768 130 753 130 735 c 2
 130 32 l 2
 130 14 115 0 97 0 c 0
 79 0 65 14 65 32 c 2
 65 735 l 2
EndSplineSet
Validated: 1
EndChar

StartChar: J
Encoding: 74 74 12
Width: 442
VWidth: 1032
Flags: W
HStem: 0 65<129.931 267.198> 748 20G<336 354>
VStem: 312 65<117.248 765.972>
LayerCount: 2
Back
SplineSet
72.98828125 106.430664062 m 4
 101.655273438 55.34765625 142.299804688 32.5 192.810546875 32.5 c 4
 295.65625 32.5 345 89.931640625 345 243.0859375 c 6
 345 735.010742188 l 1029
EndSplineSet
Fore
SplineSet
377 243 m 2
 377 98 333 0 192 0 c 0
 118 0 73 40 44 91 c 0
 41 96 40 100 40 106 c 0
 40 124 55 139 73 139 c 0
 85 139 95 132 101 122 c 0
 115 98 130 84 146 75 c 0
 159 68 174 65 192 65 c 0
 241 65 269 78 287 109 c 0
 302 135 312 178 312 243 c 2
 312 735 l 2
 312 753 327 768 345 768 c 0
 363 768 377 753 377 735 c 2
 377 243 l 2
EndSplineSet
Validated: 1
EndChar

StartChar: K
Encoding: 75 75 13
Width: 625
VWidth: 1032
Flags: W
HStem: 0 21G<83 101 539.5 554> 748 20G<83 101 548.5 562>
VStem: 60 65<1.90509 244 338 765.972>
LayerCount: 2
Back
SplineSet
91.6630859375 257.40234375 m 5
 551.663085938 735.06640625 l 1029
544.578125 32.5 m 5
 256 428.049804688 l 1029
91.6630859375 735 m 5
 91.6630859375 32.5 l 1029
EndSplineSet
Fore
SplineSet
60 735 m 2
 60 753 74 768 92 768 c 0
 110 768 125 753 125 735 c 2
 125 338 l 1
 529 758 l 2
 535 764 544 768 553 768 c 0
 571 768 585 753 585 735 c 0
 585 726 582 719 576 713 c 2
 299 425 l 1
 572 52 l 2
 576 47 578 39 578 32 c 0
 578 14 563 0 545 0 c 0
 534 0 525 5 519 13 c 2
 253 378 l 1
 125 244 l 1
 125 32 l 2
 125 14 110 0 92 0 c 0
 74 0 60 14 60 32 c 2
 60 735 l 2
EndSplineSet
Validated: 1
EndChar

StartChar: L
Encoding: 76 76 14
Width: 542
VWidth: 999
Flags: W
HStem: 0 65<125 510.095> 748 20G<83 101>
VStem: 60 65<65 765.972>
LayerCount: 2
Back
SplineSet
93 735 m 5
 93 32.5 l 5
 480.5 32.5 l 1029
EndSplineSet
Fore
SplineSet
60 735 m 2
 60 753 74 768 92 768 c 0
 110 768 125 753 125 735 c 2
 125 65 l 1
 480 65 l 2
 498 65 512 50 512 32 c 0
 512 14 498 0 480 0 c 2
 92 0 l 2
 74 0 60 14 60 32 c 2
 60 735 l 2
EndSplineSet
Validated: 1
EndChar

StartChar: M
Encoding: 77 77 15
Width: 735
VWidth: 999
Flags: W
HStem: 0 21G<83 101 633 651> 747 20G<85 99.5 635.5 650>
VStem: 60 65<1.90509 604> 610 65<1.90509 604>
LayerCount: 2
Back
SplineSet
642.176757812 32.5 m 5
 642.176757812 735 l 5
 367.177734375 213.149414062 l 5
 92.1787109375 735 l 5
 92.1787109375 32.5 l 1029
EndSplineSet
Fore
SplineSet
642 767 m 0
 658 767 675 754 675 735 c 2
 675 32 l 2
 675 14 660 0 642 0 c 0
 624 0 610 14 610 32 c 2
 610 604 l 1
 396 198 l 2
 391 188 379 181 367 181 c 0
 355 181 344 188 339 198 c 2
 125 604 l 1
 125 32 l 2
 125 14 110 0 92 0 c 0
 74 0 60 14 60 32 c 2
 60 735 l 2
 60 754 77 767 93 767 c 0
 106 767 116 759 121 750 c 2
 368 283 l 1
 614 750 l 2
 619 759 629 767 642 767 c 0
EndSplineSet
Validated: 1
EndChar

StartChar: N
Encoding: 78 78 16
Width: 658
VWidth: 999
Flags: W
HStem: 0 21G<83 101 560 574> 747 20G<85 99 557 575>
VStem: 60 65<1.90509 629> 533 65<139 765.972>
LayerCount: 2
Back
SplineSet
92.28125 31.5 m 5
 92.28125 734 l 5
 565.44921875 31.5 l 5
 565.44921875 734 l 1029
EndSplineSet
Fore
SplineSet
60 735 m 2
 60 754 77 767 93 767 c 0
 105 767 114 761 119 753 c 2
 533 139 l 1
 533 735 l 2
 533 753 548 768 566 768 c 0
 584 768 598 753 598 735 c 2
 598 32 l 2
 598 13 582 0 566 0 c 0
 554 0 544 6 539 14 c 2
 125 629 l 1
 125 32 l 2
 125 14 110 0 92 0 c 0
 74 0 60 14 60 32 c 2
 60 735 l 2
EndSplineSet
Validated: 1
EndChar

StartChar: O
Encoding: 79 79 17
Width: 636
Flags: W
HStem: 0 65<217.376 414.938> 702 66<216.09 419.91>
VStem: 50 65<197.236 570.416> 521 65<197.236 570.416>
LayerCount: 2
Back
SplineSet
82.47265625 401.25390625 m 6
 82.47265625 607.25390625 142.743164062 735 318 735 c 4
 493.256835938 735 553.526367188 607.25390625 553.526367188 401.25390625 c 6
 553.526367188 366.247070312 l 6
 553.526367188 160.24609375 493.256835938 32.5 318 32.5 c 4
 142.743164062 32.5 82.47265625 160.24609375 82.47265625 366.247070312 c 6
 82.47265625 401.25390625 l 6
EndSplineSet
Fore
SplineSet
318 0 m 0
 111 0 50 159 50 366 c 2
 50 401 l 2
 50 609 111 768 318 768 c 0
 525 768 586 609 586 401 c 2
 586 366 l 2
 586 159 525 0 318 0 c 0
115 401 m 2
 115 366 l 2
 115 277 127 206 152 157 c 0
 182 97 230 65 318 65 c 0
 406 65 454 98 484 157 c 0
 509 206 521 277 521 366 c 2
 521 401 l 2
 521 490 509 561 484 611 c 0
 454 670 406 702 318 702 c 0
 230 702 182 670 152 611 c 0
 127 561 115 490 115 401 c 2
EndSplineSet
Validated: 1
EndChar

StartChar: P
Encoding: 80 80 18
Width: 635
Flags: W
HStem: 0 21G<83 101> 345 65<125 460.098> 702 65<125 460.098>
VStem: 60 65<1.90509 345 410 702> 520 65<468.852 643.148>
LayerCount: 2
Back
SplineSet
92.666015625 32.5 m 5
 92.666015625 735 l 5
 382.666015625 734.912109375 l 6
 486.5 734.912109375 552.666015625 664.982421875 552.666015625 556.206054688 c 4
 552.666015625 447.428710938 486.5 377.5 382.666015625 377.5 c 6
 92.666015625 377.5 l 1029
EndSplineSet
Fore
SplineSet
585 556 m 0
 585 431 503 345 382 345 c 2
 125 345 l 1
 125 32 l 2
 125 14 110 0 92 0 c 0
 74 0 60 14 60 32 c 2
 60 735 l 2
 60 753 75 767 93 767 c 2
 382 767 l 2
 503 767 585 681 585 556 c 0
382 702 m 2
 125 702 l 1
 125 410 l 1
 382 410 l 2
 471 410 520 466 520 556 c 0
 520 646 471 702 382 702 c 2
EndSplineSet
Validated: 1
EndChar

StartChar: Q
Encoding: 81 81 19
Width: 657
Flags: W
HStem: 0 65<217.376 416.929> 702 65<216.09 419.91>
VStem: 50 65<196.796 570.204> 521 65<195.454 570.204>
LayerCount: 2
Back
SplineSet
83.47265625 401.25390625 m 6
 83.47265625 607.25390625 143.743164062 735 319 735 c 4
 494.256835938 735 554.52734375 607.25390625 554.52734375 401.25390625 c 6
 554.52734375 366.247070312 l 6
 554.52734375 160.24609375 494.256835938 32.5 319 32.5 c 4
 143.743164062 32.5 83.47265625 160.24609375 83.47265625 366.247070312 c 6
 83.47265625 401.25390625 l 6
412.163085938 197.5 m 5
 575.913085938 32.5 l 1029
EndSplineSet
Fore
SplineSet
379 198 m 0
 379 216 393 230 411 230 c 0
 420 230 428 226 434 220 c 2
 488 166 l 1
 510 215 521 282 521 366 c 2
 521 401 l 2
 521 490 509 562 484 611 c 0
 454 671 406 702 318 702 c 0
 230 702 182 670 152 611 c 0
 127 562 115 490 115 401 c 2
 115 366 l 2
 115 277 127 206 152 157 c 0
 182 97 230 65 318 65 c 0
 379 65 421 81 451 111 c 1
 388 175 l 2
 382 181 379 189 379 198 c 0
318 0 m 0
 111 0 50 158 50 366 c 2
 50 401 l 2
 50 609 111 767 318 767 c 0
 525 767 586 609 586 401 c 2
 586 366 l 2
 586 268 573 182 537 117 c 1
 598 55 l 2
 604 49 607 42 607 33 c 0
 607 15 593 0 575 0 c 0
 566 0 558 4 552 10 c 2
 497 65 l 1
 456 24 398 0 318 0 c 0
EndSplineSet
Validated: 1
EndChar

StartChar: R
Encoding: 82 82 20
Width: 635
VWidth: 1032
Flags: W
HStem: 0 21G<83 101 537 552> 345 65<125 342> 702 65<125 460.098>
VStem: 60 65<1.90509 345 410 702> 520 65<467.6 643.148>
LayerCount: 2
Back
SplineSet
92.666015625 32.5 m 5
 92.666015625 735 l 5
 382.666015625 734.912109375 l 6
 486.5 734.912109375 552.666015625 664.982421875 552.666015625 556.206054688 c 4
 552.666015625 447.428710938 486.5 377.5 382.666015625 377.5 c 6
 92.666015625 377.5 l 1029
361.526367188 377.5 m 5
 542.859375 32.5 l 1029
EndSplineSet
Fore
SplineSet
382 702 m 2
 125 702 l 1
 125 410 l 1
 382 410 l 2
 471 410 520 466 520 556 c 0
 520 646 471 702 382 702 c 2
585 556 m 0
 585 441 516 360 414 347 c 1
 571 48 l 2
 573 43 575 37 575 32 c 0
 575 14 561 0 543 0 c 0
 531 0 519 7 514 17 c 2
 342 345 l 1
 125 345 l 1
 125 32 l 2
 125 14 110 0 92 0 c 0
 74 0 60 14 60 32 c 2
 60 735 l 2
 60 753 75 767 93 767 c 2
 382 767 l 2
 503 767 585 681 585 556 c 0
EndSplineSet
Validated: 1
EndChar

StartChar: S
Encoding: 83 83 21
Width: 625
Flags: W
HStem: 0 65<193.186 422.54> 702 65<209.87 425.603>
VStem: 67 65<506.005 640.66> 515 65<138.98 278.026>
LayerCount: 2
Back
SplineSet
493.982421875 678.649414062 m 0
 451.072265625 712.684570312 379.71875 734.483398438 310.708984375 734.860351562 c 0
 221.70703125 735.345703125 98 691.786132812 98 577.287109375 c 0
 98 457.786132812 201.971679688 424.192382812 310.572265625 396.439453125 c 0
 423.330078125 367.624023438 545.579101562 335.119140625 545.579101562 209.618164062 c 0
 545.579101562 84.951171875 422 32.5 308.297851562 32.5 c 0
 208.666015625 32.5 130.657226562 70.072265625 75.5654296875 125.841796875 c 1024
EndSplineSet
Fore
SplineSet
528 679 m 4
 528 661 514 646 496 646 c 4
 488 646 482 649 476 653 c 4
 441 681 374 702 311 702 c 4
 252 702 189 680 159 647 c 4
 143 629 132 607 132 577 c 4
 132 520 158 493 195 472 c 4
 228 453 273 440 321 428 c 4
 415 404 516 377 559 296 c 4
 572 271 580 243 580 210 c 4
 580 120 527 64 467 34 c 4
 419 10 363 0 310 0 c 4
 202 0 115 41 54 103 c 4
 48 109 45 117 45 126 c 4
 45 144 59 158 77 158 c 4
 86 158 95 155 101 149 c 4
 150 99 219 65 310 65 c 4
 392 65 473 96 502 152 c 4
 510 168 515 187 515 210 c 4
 515 233 510 250 502 265 c 4
 470 324 381 345 304 365 c 4
 199 392 67 431 67 577 c 4
 67 623 85 662 111 691 c 4
 154 738 231 767 311 767 c 4
 387 767 465 745 516 704 c 4
 523 698 528 689 528 679 c 4
EndSplineSet
Validated: 1
EndChar

StartChar: T
Encoding: 84 84 22
Width: 628
Flags: W
HStem: 0 21G<305 323> 702 65<32.0277 282 347 596.095>
VStem: 282 65<1.90509 702>
LayerCount: 2
Back
SplineSet
314.783203125 735 m 5
 314.783203125 32.5 l 1029
566.356445312 735 m 4
 471.356445312 735 63.2119140625 735 63.2119140625 735 c 1028
EndSplineSet
Fore
SplineSet
566 767 m 2
 584 767 598 753 598 735 c 0
 598 717 584 702 566 702 c 2
 347 702 l 1
 347 32 l 2
 347 14 332 0 314 0 c 0
 296 0 282 14 282 32 c 2
 282 702 l 1
 63 702 l 2
 45 702 30 717 30 735 c 0
 30 753 45 767 63 767 c 2
 566 767 l 2
EndSplineSet
Validated: 1
EndChar

StartChar: V
Encoding: 86 86 23
Width: 637
Flags: W
HStem: 0 21G<311 325.5> 748 20G<64 80 557 573>
VStem: 40 63<746 765.972> 534 63<746 765.972>
LayerCount: 2
Back
SplineSet
564.387695312 735 m 5
 318.459960938 32.5 l 5
 72.5322265625 735 l 1029
EndSplineSet
Fore
SplineSet
564 768 m 0
 582 768 597 753 597 735 c 0
 597 731 596 727 595 724 c 2
 349 22 l 2
 345 9 333 0 318 0 c 0
 304 0 292 9 288 22 c 2
 42 724 l 2
 41 727 40 731 40 735 c 0
 40 753 55 768 73 768 c 0
 87 768 99 759 103 746 c 2
 318 131 l 1
 534 746 l 2
 538 759 550 768 564 768 c 0
EndSplineSet
Validated: 1
EndChar

StartChar: W
Encoding: 87 87 24
Width: 944
Flags: W
HStem: 0 21G<279.5 294.5 650.5 665.5> 748 20G<64 80.5 464.5 479.5 864.5 881>
VStem: 841 63<721.066 766.244>
LayerCount: 2
Back
SplineSet
871.672851562 735 m 5
 657.823242188 32.5 l 5
 472.318359375 735 l 5
 286.813476562 32.5 l 5
 72.9619140625 735 l 1029
EndSplineSet
Fore
SplineSet
287 0 m 0
 272 0 260 10 256 23 c 2
 42 726 l 2
 41 729 40 732 40 735 c 0
 40 753 55 768 73 768 c 0
 88 768 100 757 104 744 c 2
 285 151 l 1
 441 743 l 2
 444 756 457 767 472 767 c 0
 487 767 501 756 504 743 c 2
 660 151 l 1
 841 744 l 2
 845 757 857 768 872 768 c 0
 890 768 904 753 904 735 c 0
 904 732 904 729 903 726 c 2
 689 23 l 2
 685 10 673 0 658 0 c 0
 643 0 630 11 626 24 c 2
 472 608 l 1
 318 24 l 2
 314 11 302 0 287 0 c 0
EndSplineSet
Validated: 1
EndChar

StartChar: X
Encoding: 88 88 25
Width: 630
Flags: W
HStem: 0 21G<63 77.5 551.5 566> 747 21G<71 85.5 544.5 559>
LayerCount: 2
Back
SplineSet
79.6005859375 735 m 5
 557.102539062 32.5 l 1029
549.921875 735 m 5
 72.42578125 32.5078125 l 1029
EndSplineSet
Fore
SplineSet
550 767 m 0
 568 767 582 753 582 735 c 0
 582 728 581.0546875 722.962890625 577 717 c 2
 354 389 l 1
 584 51 l 2
 588.056640625 45.0380859375 590 40 590 33 c 0
 590 15 575 0 557 0 c 0
 546 0 536.237304688 4.8046875 530 14 c 2
 315 331 l 1
 99 14 l 2
 92.126953125 3.9130859375 83 0 72 0 c 0
 54 0 40 14 40 32 c 0
 40 39 41.7900390625 44.787109375 46 51 c 2
 275 389 l 1
 53 717 l 2
 48.9580078125 722.971679688 47 728 47 735 c 0
 47 753 62 768 80 768 c 0
 91 768 99.58203125 762.397460938 106 753 c 2
 315 447 l 1
 523 753 l 2
 529.396484375 762.41015625 539 767 550 767 c 0
EndSplineSet
Validated: 1
EndChar

StartChar: Y
Encoding: 89 89 26
Width: 602
Flags: W
HStem: 0 21G<291 309> 747 20G<53 67.5 534.5 549>
VStem: 267 65<1.90509 374>
LayerCount: 2
Back
SplineSet
539.703125 735 m 5
 299.703125 383.75 l 5
 62.203125 735 l 1029
299.703125 383.75 m 5
 299.703125 32.5 l 1029
EndSplineSet
Fore
SplineSet
540 767 m 0
 558 767 573 754 573 736 c 0
 573 729 571.394848271 723.414608327 567 717 c 2
 332 374 l 1
 332 32 l 2
 332 14 318 0 300 0 c 0
 282 0 267 14 267 32 c 2
 267 374 l 1
 36 717 l 2
 31.9719197708 722.981088825 30 728 30 735 c 0
 30 753 44 767 62 767 c 0
 73 767 82.6121267045 762.415301398 89 753 c 2
 300 442 l 1
 513 753 l 2
 519.430924062 762.389752973 529 767 540 767 c 0
EndSplineSet
Validated: 1
EndChar

StartChar: Z
Encoding: 90 90 27
Width: 649
Flags: W
HStem: 0 65<144 597.095> 703 65<66.0277 498>
LayerCount: 2
Back
SplineSet
96.1025390625 735.002929688 m 5
 559.268554688 735.002929688 l 5
 81.9296875 32.5 l 5
 566.227539062 32.5 l 1029
EndSplineSet
Fore
SplineSet
560 768 m 2
 580 768 592 751 592 735 c 0
 592 728 590 722 587 717 c 2
 144 65 l 1
 567 65 l 2
 585 65 599 50 599 32 c 0
 599 14 585 0 567 0 c 2
 83 0 l 2
 63 0 50 16 50 32 c 0
 50 39 53 46 56 51 c 2
 498 703 l 1
 97 703 l 2
 79 703 64 717 64 735 c 0
 64 753 79 768 97 768 c 2
 560 768 l 2
EndSplineSet
Validated: 1
EndChar

StartChar: germandbls
Encoding: 223 223 28
Width: 534
Flags: W
HStem: 0 62<365.649 409.055> 702 65<183.005 363.312>
VStem: 40 65<1.90509 626.147> 429 65<81.1993 412.125 507.175 640.154>
LayerCount: 2
Back
SplineSet
396.505859375 461.380859375 m 4
 439.838867188 483.25390625 461.766601562 516.587890625 461.766601562 564.456054688 c 4
 461.766601562 666.587890625 386.5 735 267.12890625 735 c 4
 152.200195312 735 72.4912109375 651.030273438 72.4912109375 547.448242188 c 1028
72.490234375 554.62109375 m 5
 72.490234375 32.5 l 1029
396.505859375 32.5 m 4
 439.838867188 54.373046875 461.766601562 96.373046875 461.766601562 135.57421875 c 6
 461.766601562 358.306640625 l 6
 461.766601562 397.508789062 439.838867188 439.508789062 396.505859375 461.381835938 c 1028
EndSplineSet
Fore
SplineSet
396 0 m 0
 378 0 364 14 364 32 c 0
 364 45 371 57 382 62 c 0
 414 78 429 109 429 136 c 2
 429 358 l 2
 429 385 414 416 383 432 c 0
 372 437 364 448 364 461 c 0
 364 474 372 486 384 491 c 0
 403 501 413 511 420 524 c 0
 426 534 429 547 429 564 c 0
 429 612 410 647 378 671 c 0
 352 690 315 702 267 702 c 0
 169 702 105 633 105 547 c 0
 105 32 l 2
 105 14 91 0 73 0 c 0
 55 0 40 14 40 32 c 2
 40 555 l 2
 40 556 40 558 40 559 c 0
 46 675 139 767 267 767 c 0
 326 767 377 753 417 724 c 0
 467 688 494 630 494 564 c 0
 494 518 478 485 452 461 c 1
 480 432 494 394 494 358 c 2
 494 136 l 2
 494 85 466 31 411 3 c 0
 407 1 401 0 396 0 c 0
EndSplineSet
Validated: 1
EndChar

StartChar: bracketleft
Encoding: 91 91 29
Width: 264
Flags: W
HStem: -65 65<115 211.972> 698 65<115 211.972>
VStem: 50 164<-62.9349 -1.90509 699.905 760.972> 50 65<0 698>
LayerCount: 2
Back
SplineSet
181.240234375 -32.5 m 5
 82.5009765625 -32.5 l 5
 82.5009765625 730 l 5
 181.240234375 730 l 1029
EndSplineSet
Fore
SplineSet
83 -65 m 2xe0
 66 -65 50 -52 50 -32 c 2
 50 730 l 2
 50 748 65 763 83 763 c 2
 181 763 l 2
 199 763 214 748 214 730 c 0xe0
 214 712 199 698 181 698 c 2
 115 698 l 1
 115 0 l 1xd0
 181 0 l 2
 199 0 214 -14 214 -32 c 0
 214 -50 199 -65 181 -65 c 2
 83 -65 l 2xe0
EndSplineSet
Validated: 1
EndChar

StartChar: bracketright
Encoding: 93 93 30
Width: 264
Flags: W
HStem: -65 65<51.9051 149> 698 65<51.9051 149>
VStem: 50 164<-62.9723 -1.6491 699.649 760.972> 149 65<0 698>
LayerCount: 2
Back
SplineSet
83.501953125 -32.5 m 5
 182.241210938 -32.5 l 5
 182.241210938 730 l 5
 83.501953125 730 l 1029
EndSplineSet
Fore
SplineSet
181 763 m 2xe0
 201 763 214 746 214 730 c 2
 214 -32 l 2
 214 -50 199 -65 181 -65 c 2
 82 -65 l 2
 64 -65 50 -50 50 -32 c 0xe0
 50 -14 64 0 82 0 c 2
 149 0 l 1
 149 698 l 1xd0
 82 698 l 2
 64 698 50 712 50 730 c 0
 50 748 64 763 82 763 c 2
 181 763 l 2xe0
EndSplineSet
Validated: 1
EndChar

StartChar: backslash
Encoding: 92 92 31
Width: 326
Flags: W
HStem: 0 21G<255.5 272> 748 20G<54 70.5>
LayerCount: 2
Back
SplineSet
263.784179688 32.5 m 5
 63.396484375 735 l 1029
EndSplineSet
Fore
SplineSet
296 33 m 0
 296 15 281 0 263 0 c 0
 248 0 236 10 232 24 c 2
 31 726 l 2
 30 729 30 732 30 735 c 0
 30 753 45 768 63 768 c 0
 78 768 90 758 94 744 c 2
 294 41 l 2
 295 38 296 36 296 33 c 0
EndSplineSet
Validated: 1
EndChar

StartChar: asciicircum
Encoding: 94 94 32
Width: 420
Flags: W
HStem: 522 215
LayerCount: 2
Back
SplineSet
357.5 554.912109375 m 5
 210 704.912109375 l 5
 62.5 554.912109375 l 1029
EndSplineSet
Fore
SplineSet
390 555 m 4
 390 537 375 522 357 522 c 4
 348 522 340 526 334 532 c 6
 210 659 l 5
 86 532 l 6
 80 526 72 522 63 522 c 4
 45 522 30 537 30 555 c 4
 30 564 33 572 39 578 c 6
 187 728 l 6
 193 734 201 737 210 737 c 4
 219 737 228 733 233 728 c 6
 381 578 l 6
 387 572 390 564 390 555 c 4
EndSplineSet
Validated: 1
EndChar

StartChar: zero
Encoding: 48 48 33
Width: 603
Flags: W
HStem: 0 65<208.739 394.972> 702 65<208.739 394.972>
VStem: 60 65<175.028 591.972> 478 65<175.028 591.972>
LayerCount: 2
Back
SplineSet
92.994140625 366.24609375 m 6
 92.994140625 401.252929688 l 6
 92.994140625 611.586914062 131.994140625 734.999023438 302 734.999023438 c 4
 472.005859375 734.999023438 511.004882812 611.586914062 511.004882812 401.252929688 c 6
 511.004882812 366.24609375 l 6
 511.004882812 155.912109375 472.004882812 32.5 301.999023438 32.5 c 4
 131.993164062 32.5 92.994140625 155.912109375 92.994140625 366.24609375 c 6
EndSplineSet
Fore
SplineSet
125 366 m 2
 125 274 134 202 154 153 c 0
 179 94 219 65 302 65 c 0
 385 65 424 94 449 153 c 0
 469 202 478 274 478 366 c 2
 478 401 l 2
 478 493 469 565 449 614 c 0
 424 673 385 702 302 702 c 0
 219 702 179 673 154 614 c 0
 134 565 125 493 125 401 c 2
 125 366 l 2
302 0 m 0
 99 0 60 160 60 366 c 2
 60 401 l 2
 60 607 99 767 302 767 c 0
 505 767 543 607 543 401 c 2
 543 366 l 2
 543 160 505 0 302 0 c 0
EndSplineSet
Validated: 1
EndChar

StartChar: one
Encoding: 49 49 34
Width: 365
Flags: W
HStem: 0 21G<253 271> 747 20G<257 270>
VStem: 230 65<1.90509 657>
LayerCount: 2
Back
SplineSet
262 32.5 m 5
 262 734.99609375 l 5
 262 735 l 5
 81.9990234375 554.998046875 l 1029
EndSplineSet
Fore
SplineSet
262 767 m 0
 278 767 295 755 295 735 c 2
 295 32 l 2
 295 14 280 0 262 0 c 0
 244 0 230 14 230 32 c 2
 230 657 l 1
 105 532 l 2
 99 526 91 522 82 522 c 0
 64 522 50 537 50 555 c 0
 50 564 54 572 60 578 c 2
 240 758 l 2
 245 763 252 767 262 767 c 0
EndSplineSet
Validated: 1
EndChar

StartChar: two
Encoding: 50 50 35
Width: 555
Flags: W
HStem: 0 65<147 503.095> 703 65<164.561 357.43>
VStem: 427 65<486.173 641.318>
LayerCount: 2
Back
SplineSet
473.243164062 32.5 m 5
 78.037109375 32.5 l 5
 387.670898438 404.278320312 l 6
 442.447265625 470.047851562 460.3359375 514.587890625 460.3359375 573.254882812 c 4
 460.3359375 665.254882812 383.5 735.040039062 269 735.040039062 c 4
 172.896484375 735.040039062 121.196289062 699.301757812 81.0771484375 651.763671875 c 1028
EndSplineSet
Fore
SplineSet
268 768 m 0
 396 768 492 686 492 573 c 0
 492 544 488 516 478 489 c 0
 465 455 444 421 412 383 c 2
 147 65 l 1
 473 65 l 2
 491 65 505 50 505 32 c 0
 505 14 491 0 473 0 c 2
 77 0 l 2
 57 0 45 17 45 33 c 0
 45 41 49 48 53 53 c 2
 362 425 l 2
 391 460 408 487 417 512 c 0
 424 532 427 550 427 573 c 0
 427 651 358 703 268 703 c 0
 185 703 143 676 105 631 c 0
 99 624 91 619 81 619 c 0
 63 619 48 634 48 652 c 0
 48 660 51 667 56 673 c 0
 102 727 165 768 268 768 c 0
EndSplineSet
Validated: 1
EndChar

StartChar: three
Encoding: 51 51 36
Width: 532
Flags: W
HStem: 0 65<172.77 347.073> 351 65<240.905 345.613> 702 65<182.929 341.937>
VStem: 50 62<118.232 165.972> 63 62<601.649 650.324> 410 65<480.442 634.24> 417 65<133.425 287.645>
CounterMasks: 1 e0
LayerCount: 2
Back
SplineSet
81.1142578125 135.419921875 m 4
 110.500976562 69.2548828125 184.500976562 32.5 264.021484375 32.5 c 4
 368.5 32.5 448.056640625 106.587890625 448.056640625 208.04296875 c 4
 448.056640625 316.587890625 366.62890625 383.587890625 269.689453125 383.587890625 c 5
 366.717773438 383.587890625 441.133789062 458.587890625 441.133789062 559.294921875 c 4
 441.133789062 656.333984375 364.166992188 735 264.021484375 735 c 4
 187.166992188 735 121.166992188 692.587890625 93.8701171875 632.081054688 c 1028
EndSplineSet
Fore
SplineSet
417 208 m 0xf2
 417 294 356 351 271 351 c 0
 253 351 239 366 239 384 c 0
 239 402 253 416 271 416 c 0
 350 416 410 475 410 559 c 0
 410 638 347 702 265 702 c 0
 200 702 147 667 125 619 c 0
 120 608 108 600 95 600 c 0
 77 600 63 614 63 632 c 0
 63 637 64 641 66 645 c 0
 99 718 176 767 265 767 c 0
 383 767 475 674 475 559 c 0xec
 475 485 440 422 385 385 c 1
 442 351 482 288 482 208 c 0
 482 90 388 0 265 0 c 0
 177 0 89 41 53 122 c 0
 51 126 50 130 50 135 c 0
 50 153 65 168 83 168 c 0
 96 168 107 160 112 149 c 0
 135 98 194 65 265 65 c 0
 352 65 417 124 417 208 c 0xf2
EndSplineSet
Validated: 1
EndChar

StartChar: four
Encoding: 52 52 37
Width: 570
VWidth: 1032
Flags: W
HStem: 0 21G<394 412> 127 65<137 370 435 518.095> 748 20G<323.5 339>
VStem: 300 62<748 766.191> 370 65<1.90509 127 192 318.095>
LayerCount: 2
Back
SplineSet
402.89453125 287.5 m 5
 402.89453125 32.5 l 1029
330.39453125 735 m 5
 87.8935546875 160 l 5
 487.89453125 160 l 1029
EndSplineSet
Fore
SplineSet
88 127 m 2
 68 127 55 143 55 160 c 0
 55 165 57 169 58 173 c 2
 300 748 l 0
 305 760 317 768 330 768 c 0
 348 768 362 753 362 735 c 0
 362 731 362 726 360 722 c 2
 137 192 l 1
 370 192 l 1
 370 288 l 2
 370 306 385 320 403 320 c 0
 421 320 435 306 435 288 c 2
 435 192 l 1
 488 192 l 2
 506 192 520 178 520 160 c 0
 520 142 506 128 488 128 c 0
 470 128 453 127 435 127 c 1
 435 32 l 2
 435 14 421 0 403 0 c 0
 385 0 370 14 370 32 c 2
 370 127 l 1
 88 127 l 2
EndSplineSet
Validated: 1
EndChar

StartChar: five
Encoding: 53 53 38
Width: 581
VWidth: 1032
Flags: W
HStem: 0 65<174.382 359.558> 452 65<167.297 374.503> 710 65<133 476.095>
VStem: 66 65<484 710> 461 65<164.236 366.223>
LayerCount: 2
Back
SplineSet
445.172851562 742.5 m 1
 100.172851562 742.5 l 1
 97.6728515625 422.411132812 l 1
 152.166992188 468.108398438 204.995117188 484.330078125 269.504882812 484.330078125 c 0
 414.166992188 484.330078125 493.087890625 403.442382812 493.087890625 258.415039062 c 0
 493.087890625 119.107421875 393.83203125 32.5 257.002929688 32.5 c 0
 181.8515625 32.5 123.689453125 71.56640625 81.830078125 126.848632812 c 1024
EndSplineSet
Fore
SplineSet
258 65 m 0
 380 65 461 137 461 258 c 0
 461 317 447 362 423 392 c 0
 393 429 344 452 270 452 c 0
 202 452 160 432 119 398 c 0
 114 394 107 390 98 390 c 0
 82 390 66 402 66 422 c 2
 68 743 l 2
 68 761 83 775 101 775 c 2
 446 775 l 2
 464 775 478 760 478 742 c 0
 478 724 464 710 446 710 c 2
 133 710 l 1
 131 484 l 1
 169 504 219 517 270 517 c 0
 357 517 429 490 474 433 c 0
 510 388 526 328 526 258 c 0
 526 104 415 0 258 0 c 0
 171 0 103 46 57 107 c 0
 53 112 50 120 50 127 c 0
 50 145 64 159 82 159 c 0
 93 159 102 154 108 146 c 0
 146 96 195 65 258 65 c 0
EndSplineSet
Validated: 1
EndChar

StartChar: six
Encoding: 54 54 39
Width: 577
Flags: W
HStem: 0 65<205.621 376.358> 432 65<203.865 376.358> 702 65<205.326 377.252>
VStem: 60 65<149.424 348.303 434 609.862> 452 65<144.772 352.761>
LayerCount: 2
Back
SplineSet
290.23828125 464.782226562 m 4
 412.2421875 464.782226562 484.051757812 379.961914062 484.051757812 248.640625 c 4
 484.051757812 117.321289062 412.243164062 32.5 290.23828125 32.5 c 4
 168.233398438 32.5 92.1708984375 117.322265625 92.1708984375 248.640625 c 4
 92.1708984375 379.9609375 168.233398438 464.782226562 290.23828125 464.782226562 c 4
435.534179688 672.728515625 m 4
 402.283203125 712.258789062 352.875976562 734.6171875 290.237304688 734.6171875 c 4
 168.232421875 734.6171875 96.4228515625 649.795898438 96.4228515625 518.475585938 c 6
 92.1708984375 248.641601562 l 1029
EndSplineSet
Fore
SplineSet
64 519 m 0
 65 582 80 639 111 682 c 0
 151 737 215 767 291 767 c 0
 362 767 421 742 461 694 c 0
 466 688 468 681 468 673 c 0
 468 655 454 640 436 640 c 0
 426 640 417 645 411 652 c 0
 385 683 346 702 291 702 c 0
 182 702 131 629 129 518 c 2
 128 434 l 1
 169 475 226 497 291 497 c 0
 367 497 430 467 470 412 c 0
 501 369 517 313 517 249 c 0
 517 185 501 128 470 85 c 0
 430 30 367 0 291 0 c 0
 151 0 60 103 60 249 c 2
 64 519 l 0
452 249 m 0
 452 360 399 432 291 432 c 0
 183 432 125 360 125 249 c 0
 125 138 183 65 291 65 c 0
 399 65 452 138 452 249 c 0
EndSplineSet
Validated: 1
EndChar

StartChar: nine
Encoding: 57 57 40
Width: 577
Flags: W
HStem: 0 65<199.748 371.674> 270 65<200.642 373.135> 702 65<200.642 371.379>
VStem: 60 65<414.239 622.228> 449 64<149.424 333 411.318 624.117>
LayerCount: 2
Fore
SplineSet
513 248 m 0
 512 185 497 128 466 85 c 0
 426 30 362 0 286 0 c 0
 215 0 156 25 116 73 c 0
 111 79 109 86 109 94 c 0
 109 112 123 127 141 127 c 0
 151 127 160 122 166 115 c 0
 192 84 231 65 286 65 c 0
 395 65 446 138 448 249 c 2
 449 333 l 1
 408 292 351 270 286 270 c 0
 210 270 147 300 107 355 c 0
 76 398 60 454 60 518 c 0
 60 582 76 639 107 682 c 0
 147 737 210 767 286 767 c 0
 426 767 517 664 517 518 c 2
 513 248 l 0
125 518 m 0
 125 407 178 335 286 335 c 0
 394 335 452 407 452 518 c 0
 452 629 394 702 286 702 c 0
 178 702 125 629 125 518 c 0
EndSplineSet
Validated: 1
EndChar

StartChar: seven
Encoding: 55 55 41
Width: 550
Flags: W
HStem: 0 21G<147 162.5> 702 65<115 427>
VStem: 50 65<577.028 702> 124 62<1.6491 19>
LayerCount: 2
Back
SplineSet
156.91796875 32.5 m 5
 478 735 l 5
 83 735 l 5
 83 607.5 l 1029
EndSplineSet
Fore
SplineSet
478 768 m 2
 498 768 510 752 510 735 c 0
 510 730 509 726 507 722 c 2
 186 19 l 0
 181 8 169 0 156 0 c 0
 138 0 124 14 124 32 c 0
 124 37 125 42 127 46 c 2
 427 702 l 1
 115 702 l 1
 115 608 l 2
 115 590 101 575 83 575 c 0
 65 575 50 590 50 608 c 2
 50 735 l 2
 50 755 67 767 83 767 c 2
 478 768 l 2
EndSplineSet
Validated: 1
EndChar

StartChar: eight
Encoding: 56 56 42
Width: 591
Flags: W
HStem: 0 65<210.292 379.914> 383 65<219.889 370.428> 702 65<220.015 370.222>
VStem: 60 65<147.044 301.312> 94 65<505.623 644.882> 432 65<506.918 643.587> 466 65<147.044 301.312>
LayerCount: 2
Back
SplineSet
294 415.506835938 m 4
 399.765625 415.506835938 496.840820312 337.587890625 496.840820312 224.002929688 c 4
 496.840820312 110.41796875 399.765625 32.5 294 32.5 c 4
 188.235351562 32.5 91.1591796875 110.41796875 91.1591796875 224.002929688 c 4
 91.1591796875 337.587890625 188.235351562 415.506835938 294 415.506835938 c 4
294 735 m 4
 382.2265625 735 463.204101562 670.001953125 463.204101562 575.252929688 c 4
 463.204101562 480.50390625 382.225585938 415.506835938 294 415.506835938 c 4
 205.775390625 415.506835938 124.794921875 480.50390625 124.794921875 575.252929688 c 4
 124.794921875 670.002929688 205.774414062 735 294 735 c 4
EndSplineSet
Fore
SplineSet
295 702 m 0xec
 222 702 159 649 159 575 c 0
 159 501 222 448 295 448 c 0
 368 448 432 501 432 575 c 0
 432 649 368 702 295 702 c 0xec
295 767 m 0
 398 767 497 690 497 575 c 0xec
 497 506 462 451 412 418 c 1
 480 381 531 312 531 224 c 0
 531 90 416 0 295 0 c 0
 174 0 60 90 60 224 c 0xf2
 60 312 110 381 178 418 c 1
 128 451 94 506 94 575 c 0
 94 690 192 767 295 767 c 0
295 383 m 0
 204 383 125 317 125 224 c 0
 125 131 204 65 295 65 c 0
 386 65 466 131 466 224 c 0xf2
 466 317 386 383 295 383 c 0
EndSplineSet
Validated: 1
EndChar

StartChar: colon
Encoding: 58 58 43
Width: 139
Flags: W
HStem: 79 79<34.393 104.819> 377 79<34.393 104.819>
VStem: 30 79<83.393 153.819 381.393 451.819>
LayerCount: 2
Fore
SplineSet
30 417 m 0
 30 439 48 456 70 456 c 0
 92 456 109 439 109 417 c 0
 109 395 92 377 70 377 c 0
 48 377 30 395 30 417 c 0
30 119 m 0
 30 141 48 158 70 158 c 0
 92 158 109 141 109 119 c 0
 109 97 92 79 70 79 c 0
 48 79 30 97 30 119 c 0
EndSplineSet
Validated: 1
EndChar

StartChar: semicolon
Encoding: 59 59 44
Width: 168
Flags: W
HStem: 377 79<66.393 136.819>
VStem: 62 79<381.393 451.819> 72 65<-66.2988 68.513>
LayerCount: 2
Fore
SplineSet
101 72 m 0xa0
 135.381835938 72 137 29.67578125 137 -3 c 0
 137 -67 110 -110 69 -135 c 0
 64 -138 58 -139 52 -139 c 0
 34 -139 19 -125 19 -107 c 0
 19 -95 26 -85 35 -79 c 0
 60.7099609375 -63.57421875 72 -42.263671875 72 -3 c 0
 72 8.849609375 68 25.322265625 68 39 c 0
 68 57 83 72 101 72 c 0xa0
62 417 m 0xc0
 62 439 80 456 102 456 c 0
 124 456 141 439 141 417 c 0
 141 395 124 377 102 377 c 0
 80 377 62 395 62 417 c 0xc0
EndSplineSet
Validated: 1
EndChar

StartChar: equal
Encoding: 61 61 45
Width: 498
Flags: W
HStem: 141 65<51.9051 445.972> 337 65<51.9051 445.972>
LayerCount: 2
Back
SplineSet
414 369.455078125 m 5
 81.0849609375 369.455078125 l 1029
414 173.369140625 m 5
 81.0849609375 173.369140625 l 1029
EndSplineSet
Fore
SplineSet
415 402 m 2
 433 402 448 387 448 369 c 0
 448 351 433 337 415 337 c 2
 82 337 l 2
 64 337 50 351 50 369 c 0
 50 387 64 402 82 402 c 2
 415 402 l 2
415 206 m 2
 433 206 448 191 448 173 c 0
 448 155 433 141 415 141 c 2
 82 141 l 2
 64 141 50 155 50 173 c 0
 50 191 64 206 82 206 c 2
 415 206 l 2
EndSplineSet
Validated: 1
EndChar

StartChar: question
Encoding: 63 63 46
Width: 513
Flags: W
HStem: 0 79<205.393 275.819> 702 65<156.108 335.849>
VStem: 201 79<4.39297 74.8191> 209 65<215.028 301.655> 418 65<472.877 623.563>
LayerCount: 2
Back
SplineSet
63.1953125 635.572265625 m 4
 103.55078125 697.587890625 167.340820312 735 241.712890625 735 c 4
 360.428710938 735 451 660.391601562 451 541.674804688 c 4
 451 488.720703125 430.266601562 443.177734375 359.2734375 394.120117188 c 4
 264.596679688 328.6953125 241.711914062 298.799804688 241.711914062 245.586914062 c 1028
EndSplineSet
Fore
SplineSet
201 40 m 0xe8
 201 62 219 79 241 79 c 0
 263 79 280 62 280 40 c 0
 280 18 263 0 241 0 c 0
 219 0 201 18 201 40 c 0xe8
418 542 m 0
 418 643 343 702 241 702 c 0
 178 702 125 672 90 618 c 0
 84 609 73 603 62 603 c 0
 44 603 30 618 30 636 c 0
 30 643 32 648 35 653 c 0
 81 723 155 767 241 767 c 0
 379 767 483 676 483 542 c 0
 483 515 478 487 465 460 c 0
 448 427 419 396 377 367 c 0
 325 331 298 308 286 290 c 0
 277 276 274 265 274 246 c 0
 274 228 259 213 241 213 c 0
 223 213 209 228 209 246 c 0xd8
 209 274 215 301 232 326 c 0
 253 357 287 384 340 421 c 0
 377 446 396 468 406 489 c 0
 414 505 418 522 418 542 c 0
EndSplineSet
Validated: 1
EndChar

StartChar: exclam
Encoding: 33 33 47
Width: 139
Flags: W
HStem: 0 79<34.393 104.819> 748 20G<61 79>
VStem: 30 79<4.39297 74.8191> 38 65<222.017 765.983>
LayerCount: 2
Back
SplineSet
70 737 m 1
 70 247.587890625 l 1025
EndSplineSet
Fore
SplineSet
38 736 m 2xd0
 38 753 52 768 70 768 c 0
 88 768 103 753 103 736 c 2
 103 252 l 2
 103 235 88 220 70 220 c 0
 52 220 38 235 38 252 c 2
 38 736 l 2xd0
30 40 m 0xe0
 30 62 48 79 70 79 c 0
 92 79 109 62 109 40 c 0
 109 18 92 0 70 0 c 0
 48 0 30 18 30 40 c 0xe0
EndSplineSet
Validated: 1
EndChar

StartChar: v
Encoding: 118 118 48
Width: 504
Flags: HW
HStem: 0 21G<245.5 259> 527 20G<34 49.5 454.5 470>
VStem: 10 62<527 544.989> 432 62<527 544.989>
LayerCount: 2
Back
SplineSet
41.578125 514.5 m 5
 251 32.5 l 5
 460.421875 514.5 l 1029
EndSplineSet
Fore
SplineSet
10 515 m 0
 10 533 25 547 43 547 c 0
 56 547 67 539 72 527 c 2
 252 114 l 1
 432 527 l 0
 437 539 448 547 461 547 c 0
 479 547 494 533 494 515 c 0
 494 510 493 506 491 502 c 2
 282 20 l 2
 277 9 266 0 252 0 c 0
 239 0 227 8 222 20 c 2
 13 502 l 2
 11 506 10 510 10 515 c 0
EndSplineSet
EndChar

StartChar: percent
Encoding: 37 37 49
Width: 819
Flags: W
HStem: 0 21G<164 178.5> 14 65<597.526 694.474> 297 65<597.526 694.474> 405 65<124.526 221.014> 688 65<124.526 221.014> 748 20G<640.5 655>
VStem: 30 65<500.791 657.209> 250 65<500.192 657.808> 503 65<109.687 266.209> 724 65<109.687 266.209>
LayerCount: 2
Back
SplineSet
583.475585938 252.411132812 m 1029
172.313476562 32.5 m 5
 645.688476562 735 l 1029
62.1708984375 579.087890625 m 4
 62.1708984375 657.236328125 104.170898438 720.587890625 172.313476562 720.587890625 c 4
 240.455078125 720.587890625 282.455078125 657.236328125 282.455078125 579.087890625 c 4
 282.455078125 500.939453125 240.455078125 437.587890625 172.313476562 437.587890625 c 4
 104.170898438 437.587890625 62.1708984375 500.939453125 62.1708984375 579.087890625 c 4
755.830078125 188.412109375 m 4
 755.830078125 110.263671875 713.830078125 46.912109375 645.686523438 46.912109375 c 4
 577.544921875 46.912109375 535.544921875 110.263671875 535.544921875 188.412109375 c 4
 535.544921875 266.559570312 577.544921875 329.912109375 645.686523438 329.912109375 c 4
 713.830078125 329.912109375 755.830078125 266.559570312 755.830078125 188.412109375 c 4
EndSplineSet
Fore
SplineSet
173 0 m 0xb3c0
 155 0 140 15 140 33 c 0
 140 40 143 46 146 51 c 2
 619 753 l 2xbbc0
 625 762 635 768 646 768 c 0
 664 768 679 753 679 735 c 0
 679 728 677 722 673 717 c 2
 200 14 l 0x77c0
 194 5 184 0 173 0 c 0xb3c0
30 579 m 0
 30 609 35 638 46 663 c 0
 67 714 112 753 173 753 c 0
 234 753 278 714 299 663 c 0
 310 638 315 609 315 579 c 0
 315 549 310 520 299 495 c 0
 278 444 234 405 173 405 c 0
 112 405 67 444 46 495 c 0
 35 520 30 549 30 579 c 0
95 579 m 0
 95 557 99 537 106 520 c 0
 120 487 143 470 173 470 c 0
 203 470 225 487 239 520 c 0
 246 537 250 557 250 579 c 0
 250 601 246 621 239 638 c 0
 225 671 203 688 173 688 c 0
 143 688 120 671 106 638 c 0
 99 621 95 601 95 579 c 0
789 188 m 0
 789 158 784 130 773 105 c 0
 752 54 707 14 646 14 c 0x73c0
 585 14 540 54 519 105 c 0
 508 130 503 158 503 188 c 0
 503 218 508 247 519 272 c 0
 540 323 585 362 646 362 c 0
 707 362 752 323 773 272 c 0
 784 247 789 218 789 188 c 0
724 188 m 0
 724 210 720 230 713 247 c 0
 699 280 676 297 646 297 c 0
 616 297 593 280 579 247 c 0
 572 230 568 210 568 188 c 0
 568 166 572 146 579 129 c 0
 593 96 616 79 646 79 c 0
 676 79 699 96 713 129 c 0
 720 146 724 166 724 188 c 0
EndSplineSet
Validated: 1
EndChar

StartChar: ampersand
Encoding: 38 38 50
Width: 603
Flags: W
HStem: 0 65<170.705 306.152> 702 65<220.014 346.335>
VStem: 40 65<128.31 270.865> 115 65<536.953 661.96> 385 65<536.948 663.062>
LayerCount: 2
Back
SplineSet
524 217.987304688 m 1
 333.802734375 66.8974609375 l 2
 308.120117188 46.4970703125 279.088867188 32.5 247.212890625 32.5 c 0
 151.072265625 32.5 73.138671875 106.625976562 73.138671875 197.708007812 c 0
 73.138671875 245.587890625 88.6943359375 286.756835938 131.196289062 319.423828125 c 2
 361.46875 491.4453125 l 2
 401.333007812 520.799804688 417.817382812 556.586914062 417.817382812 595.963867188 c 0
 417.817382812 679.254882812 356.291015625 734.006835938 282.141601562 734.006835938 c 0
 207.990234375 734.006835938 147.880859375 677.076171875 147.880859375 595.963867188 c 0
 147.880859375 569.587890625 156.838867188 545.092773438 176.943359375 515.900390625 c 2
 524 32.787109375 l 1025
EndSplineSet
Fore
SplineSet
282 702 m 0
 226 702 180 660 180 596 c 0
 180 578 185 561 203 535 c 2
 259 456 l 1
 342 518 l 2
 369 538 385 558 385 596 c 0
 385 658 343 702 282 702 c 0
450 596 m 0
 450 535 420 494 380 465 c 2
 297 403 l 1
 445 197 l 1
 503 243 l 2
 509 247 515 251 523 251 c 0
 541 251 556 236 556 218 c 0
 556 208 551 199 544 193 c 0
 483 145 l 1
 550 52 l 2
 554 47 556 40 556 33 c 0
 556 15 541 0 523 0 c 0
 512 0 503 6 497 14 c 0
 432 104 l 1
 353 41 l 2
 324 18 289 0 247 0 c 0
 134 0 40 88 40 198 c 0
 40 267 67 311 111 345 c 2
 207 417 l 1
 150 497 l 2
 127 529 115 562 115 596 c 0
 115 694 190 767 282 767 c 0
 379 767 450 692 450 596 c 0
247 65 m 0
 269 65 291 74 313 92 c 2
 394 157 l 1
 245 364 l 1
 150 294 l 2
 120 271 105 245 105 198 c 0
 105 126 167 65 247 65 c 0
EndSplineSet
Validated: 1
EndChar

StartChar: parenleft
Encoding: 40 40 51
Width: 261
Flags: W
HStem: 743 20G<171.5 187>
VStem: 50 65<181.049 516.759> 149 62<-63.0408 -1.7002 699.7 760.972>
LayerCount: 2
Back
SplineSet
178 -32.5 m 0
 119.958984375 85.912109375 82.2880859375 224.912109375 82.2880859375 348.75 c 0
 82.2880859375 472.587890625 119.958984375 611.587890625 178 730 c 1024
EndSplineSet
Fore
SplineSet
211 -33 m 0
 211 -51 196 -65 178 -65 c 0
 165 -65 154 -58 149 -47 c 0
 89 75 50 219 50 349 c 0
 50 479 89 622 149 744 c 0
 154 755 165 763 178 763 c 0
 196 763 211 748 211 730 c 0
 211 725 209 720 207 716 c 0
 151 601 115 466 115 349 c 0
 115 232 151 97 207 -18 c 0
 209 -22 211 -28 211 -33 c 0
EndSplineSet
Validated: 1
EndChar

StartChar: parenright
Encoding: 41 41 52
Width: 261
Flags: W
HStem: 743 20G<74 89.5>
VStem: 50 62<-63.0408 -1.7002 699.7 760.972> 146 65<181.049 516.759>
LayerCount: 2
Back
SplineSet
84.2880859375 -32.5 m 4
 142.329101562 85.912109375 180 224.912109375 180 348.75 c 4
 180 472.587890625 142.329101562 611.587890625 84.2880859375 730 c 1028
EndSplineSet
Fore
SplineSet
50 -33 m 0
 50 -28 51 -22 53 -18 c 0
 109 97 146 232 146 349 c 0
 146 466 109 601 53 716 c 0
 51 720 50 725 50 730 c 0
 50 748 65 763 83 763 c 0
 96 763 107 755 112 744 c 0
 172 622 211 479 211 349 c 0
 211 219 172 75 112 -47 c 0
 107 -58 96 -65 83 -65 c 0
 65 -65 50 -51 50 -33 c 0
EndSplineSet
Validated: 1
EndChar

StartChar: plus
Encoding: 43 43 53
Width: 498
Flags: W
HStem: 246 65<52.0277 216 281 445.972>
VStem: 216 65<81.9051 246 311 475.972>
LayerCount: 2
Back
SplineSet
414.45703125 278.918945312 m 5
 81.5419921875 278.918945312 l 1029
248 112.4609375 m 5
 248 445.375976562 l 1029
EndSplineSet
Fore
SplineSet
281 112 m 2
 281 94 267 80 249 80 c 0
 231 80 216 94 216 112 c 2
 216 246 l 1
 83 246 l 2
 65 246 50 261 50 279 c 0
 50 297 65 311 83 311 c 2
 216 311 l 1
 216 445 l 2
 216 463 231 478 249 478 c 0
 267 478 281 463 281 445 c 2
 281 311 l 1
 415 311 l 2
 433 311 448 297 448 279 c 0
 448 261 433 246 415 246 c 2
 281 246 l 1
 281 112 l 2
EndSplineSet
Validated: 1
EndChar

StartChar: hyphen
Encoding: 45 45 54
Width: 498
Flags: W
HStem: 246 65<52.0277 445.972>
LayerCount: 2
Fore
SplineSet
415 311 m 2
 433 311 448 297 448 279 c 0
 448 261 433 246 415 246 c 2
 83 246 l 2
 65 246 50 261 50 279 c 0
 50 297 65 311 83 311 c 2
 415 311 l 2
EndSplineSet
Validated: 1
EndChar

StartChar: period
Encoding: 46 46 55
Width: 139
Flags: W
HStem: 0 79<34.393 104.819>
VStem: 30 79<4.39297 74.8191>
LayerCount: 2
Fore
SplineSet
30 40 m 0
 30 62 48 79 70 79 c 0
 92 79 109 62 109 40 c 0
 109 18 92 0 70 0 c 0
 48 0 30 18 30 40 c 0
EndSplineSet
Validated: 1
EndChar

StartChar: comma
Encoding: 44 44 56
Width: 168
Flags: W
HStem: -139 211<52 101>
VStem: 73 65<-65.9824 68.3479>
LayerCount: 2
Fore
SplineSet
73 -3 m 0
 73 9 69 24 69 39 c 0
 69 57 83 72 101 72 c 0
 136 72 138 30 138 -3 c 0
 138 -67 110 -109 69 -134 c 0
 64 -137 58 -139 52 -139 c 0
 34 -139 20 -124 20 -106 c 0
 20 -94 27 -85 36 -79 c 0
 62 -63 73 -43 73 -3 c 0
EndSplineSet
Validated: 1
EndChar

StartChar: slash
Encoding: 47 47 57
Width: 325
Flags: W
HStem: 0 21G<54 70.5> 748 20G<255.5 272>
VStem: 30 265
LayerCount: 2
Back
SplineSet
62.6123046875 32.5 m 5
 263 735 l 1029
EndSplineSet
Fore
SplineSet
63 0 m 0
 45 0 30 14 30 32 c 0
 30 35 30 38 31 41 c 2
 232 744 l 2
 236 758 248 768 263 768 c 0
 281 768 295 753 295 735 c 0
 295 732 295 729 294 726 c 2
 94 24 l 2
 90 10 78 0 63 0 c 0
EndSplineSet
Validated: 1
EndChar

StartChar: a
Encoding: 97 97 58
Width: 593
Flags: W
LayerCount: 2
Back
SplineSet
494.912109375 500.328125 m 5
 494.912109375 93.5888671875 l 6
 494.912109375 63.0439453125 501.833007812 44.32421875 520.212890625 32.5 c 1028
494.912109375 412.446289062 m 4
 459.166015625 473.078125 395.166015625 514.500976562 308.591796875 514.500976562 c 4
 184.803710938 514.500976562 84.642578125 419.254882812 84.642578125 273.500976562 c 4
 84.642578125 127.747070312 183.801757812 32.5 308.591796875 32.5 c 4
 395.166015625 32.5 459.166015625 73.9228515625 494.912109375 134.5546875 c 1028
EndSplineSet
Fore
SplineSet
52 274 m 0xe8
 52 430 161 547 308 547 c 0
 369 547 421 528 462 497 c 1
 462 500 l 2
 462 518 477 533 495 533 c 0
 513 533 527 518 527 500 c 0
 527 365 527 229 527 94 c 0xf0
 527 76 529 66 538 60 c 0
 547 54 552 43 552 32 c 0
 552 14 538 0 520 0 c 0
 514 0 508 2 503 5 c 0
 486 16 473 33 467 54 c 1
 426 21 371 0 308 0 c 0
 160 0 52 117 52 274 c 0xe8
117 274 m 0
 117 153 194 65 308 65 c 0
 380 65 431 97 462 144 c 1
 462 403 l 1
 431 450 380 482 308 482 c 0
 195 482 117 395 117 274 c 0
EndSplineSet
Validated: 1
EndChar

StartChar: b
Encoding: 98 98 59
Width: 592
Flags: W
HStem: 0 65<191.974 374.686> 482 65<191.974 374.266> 748 20G<88 106>
VStem: 65 65<16.0277 50 117.359 429.641 497 765.972> 475 65<171.551 376.058>
LayerCount: 2
Back
SplineSet
96.78125 735.000976562 m 5
 96.78125 46.6728515625 l 1029
96.78125 412.446289062 m 4
 132.52734375 473.078125 196.52734375 514.500976562 283.100585938 514.500976562 c 4
 406.888671875 514.500976562 507.049804688 419.254882812 507.049804688 273.500976562 c 4
 507.049804688 127.747070312 407.890625 32.5 283.100585938 32.5 c 4
 196.52734375 32.5 132.52734375 73.9228515625 96.78125 134.5546875 c 1028
EndSplineSet
Fore
SplineSet
540 274 m 0
 540 117 432 0 284 0 c 0
 223 0 171 19 130 50 c 1
 130 47 l 2
 130 29 115 14 97 14 c 0
 79 14 65 29 65 47 c 2
 65 735 l 2
 65 753 79 768 97 768 c 0
 115 768 130 753 130 735 c 2
 130 497 l 1
 171 528 223 547 284 547 c 0
 431 547 540 430 540 274 c 0
475 274 m 0
 475 395 397 482 284 482 c 0
 212 482 161 450 130 403 c 1
 130 144 l 1
 161 97 212 65 284 65 c 0
 398 65 475 153 475 274 c 0
EndSplineSet
Validated: 1
EndChar

StartChar: c
Encoding: 99 99 60
Width: 523
Flags: W
HStem: 0 65<201.96 377.166> 482 65<199.439 362.588>
VStem: 50 65<159.058 388.272>
LayerCount: 2
Back
SplineSet
450.469726562 122.170898438 m 0
 413.5546875 57.921875 368.8046875 32.5 288.834960938 32.5 c 0
 152.365234375 32.5 82.66796875 136.412109375 82.66796875 273.5 c 0
 82.66796875 410.587890625 149.529296875 514.5 286 514.5 c 0
 349.471679688 514.5 395.5546875 486.587890625 426.231445312 440.680664062 c 1024
EndSplineSet
Fore
SplineSet
115 274 m 0
 115 153 170 65 289 65 c 0
 322 65 345 69 363 78 c 0
 386 89 403 106 422 138 c 0
 428 148 438 155 450 155 c 0
 468 155 483 140 483 122 c 0
 483 116 482 111 479 106 c 0
 441 40 388 0 289 0 c 0
 136 0 50 118 50 274 c 0
 50 429 133 547 286 547 c 0
 366 547 420 509 453 459 c 0
 456 454 459 448 459 441 c 0
 459 423 444 408 426 408 c 0
 415 408 405 414 399 423 c 0
 375 459 342 482 286 482 c 0
 167 482 115 394 115 274 c 0
EndSplineSet
Validated: 1
EndChar

StartChar: d
Encoding: 100 100 61
Width: 585
Flags: W
HStem: 0 65<215.314 398.026> 482 65<215.734 398.026> 748 20G<484 502>
VStem: 50 65<171.551 376.058> 460 65<16.0277 50 117.359 429.641 497 765.972>
LayerCount: 2
Back
SplineSet
492.359375 735.000976562 m 5
 492.359375 46.673828125 l 1029
492.359375 412.446289062 m 4
 456.61328125 473.078125 392.61328125 514.500976562 306.0390625 514.500976562 c 4
 182.250976562 514.500976562 82.08984375 419.254882812 82.08984375 273.500976562 c 4
 82.08984375 127.747070312 181.249023438 32.5 306.0390625 32.5 c 4
 392.61328125 32.5 456.61328125 73.9228515625 492.359375 134.5546875 c 1028
EndSplineSet
Fore
SplineSet
525 47 m 2
 525 29 511 14 493 14 c 0
 475 14 460 29 460 47 c 2
 460 50 l 1
 419 19 367 0 306 0 c 0
 158 0 50 117 50 274 c 0
 50 430 159 547 306 547 c 0
 367 547 419 528 460 497 c 1
 460 735 l 2
 460 753 475 768 493 768 c 0
 511 768 525 753 525 735 c 2
 525 47 l 2
115 274 m 0
 115 153 192 65 306 65 c 0
 378 65 429 97 460 144 c 1
 460 403 l 1
 429 450 378 482 306 482 c 0
 193 482 115 395 115 274 c 0
EndSplineSet
Validated: 1
EndChar

StartChar: e
Encoding: 101 101 62
Width: 552
Flags: W
HStem: 0 65<199.893 383.214> 241 65<116 436> 482 65<198.319 362.002>
VStem: 50 66<157.975 241 306 391.575>
CounterMasks: 1 e0
LayerCount: 2
Back
SplineSet
452.83203125 106.512695312 m 4
 423.329101562 63.740234375 370.5 32.5 292.615234375 32.5 c 4
 151.5 32.5 83.61328125 136.34375 83.61328125 273.431640625 c 4
 83.61328125 408.7578125 148.765625 511.754882812 281.716796875 514.379882812 c 5
 281.716796875 514.388671875 l 5
 414.805664062 511.939453125 470.44140625 404.997070312 470.44140625 273.431640625 c 5
 100.5 273.431640625 l 1029
EndSplineSet
Fore
SplineSet
116 241 m 1
 126 137 179 65 292 65 c 0
 361 65 402 92 425 125 c 0
 431 133 441 139 452 139 c 0
 470 139 484 125 484 107 c 0
 484 100 482 93 478 88 c 0
 442 36 379 0 292 0 c 0
 137 0 50 116 50 273 c 0
 50 425 132 547 281 547 c 0
 370 547 430 501 463 443 c 0
 491 395 502 335 502 273 c 0
 502 255 487 241 469 241 c 2
 116 241 l 1
116 306 m 1
 436 306 l 1
 428 405 385 482 281 482 c 0
 176 482 125 407 116 306 c 1
EndSplineSet
Validated: 1
EndChar

StartChar: f
Encoding: 102 102 63
Width: 322
Flags: W
HStem: 0 21G<131 149> 482 65<22.0277 108 173 299.972> 702 65<185.999 299.972>
VStem: 108 65<1.90509 482 547 688.957>
LayerCount: 2
Back
SplineSet
52.615234375 514.5 m 5
 269.430664062 514.5 l 1029
140.436523438 616.678710938 m 5
 140.436523438 597.965820312 l 5
 140.436523438 32.5 l 1029
258.314453125 735 m 4
 170.000976562 735 140.438476562 699.587890625 140.438476562 617.125 c 1028
258.314453125 735 m 5
 269.430664062 735 l 1029
EndSplineSet
Fore
SplineSet
173 547 m 1
 269 547 l 2
 287 547 302 532 302 514 c 0
 302 496 287 482 269 482 c 2
 173 482 l 1
 173 32 l 2
 173 14 158 0 140 0 c 0
 122 0 108 14 108 32 c 2
 108 482 l 1
 53 482 l 2
 35 482 20 496 20 514 c 0
 20 532 35 547 53 547 c 2
 108 547 l 1
 108 617 l 2
 108 723.638671875 151.259765625 767 258 767 c 2
 269 767 l 2
 287 767 302 753 302 735 c 0
 302 717 287 702 269 702 c 2
 258 702 l 2
 186 702 173 683 173 617 c 2
 173 547 l 1
EndSplineSet
Validated: 1
EndChar

StartChar: g
Encoding: 103 103 64
Width: 594
Flags: W
HStem: -220 65<172.955 375.152> 0 65<219.314 402.026> 482 65<219.734 402.026>
VStem: 54 65<171.551 376.058> 464 65<-69.1243 50 117.359 429.641 497 530.972>
LayerCount: 2
Back
SplineSet
498.1640625 412.446289062 m 4
 462.41796875 473.078125 398.41796875 514.500976562 311.84375 514.500976562 c 4
 188.055664062 514.500976562 87.89453125 419.254882812 87.89453125 273.500976562 c 4
 87.89453125 127.747070312 187.053710938 32.5 311.84375 32.5 c 4
 398.41796875 32.5 462.41796875 73.9228515625 498.1640625 134.5546875 c 1028
134.665039062 -144.828125 m 4
 171.251953125 -175.411132812 214.418945312 -187.845703125 284.52734375 -187.845703125 c 4
 406.920898438 -187.845703125 498.165039062 -100.087890625 498.165039062 6.751953125 c 6
 498.165039062 500.328125 l 1029
EndSplineSet
Fore
SplineSet
54 274 m 0
 54 430 163 547 310 547 c 0
 371 547 423 528 464 497 c 1
 464 500 l 2
 464 518 479 533 497 533 c 0
 515 533 529 518 529 500 c 2
 529 7 l 2
 529 -120 421 -220 283 -220 c 0
 209 -220 156 -207 112 -170 c 0
 105 -164 101 -155 101 -145 c 0
 101 -127 115 -112 133 -112 c 0
 141 -112 148 -115 154 -120 c 0
 183 -144 217 -155 283 -155 c 0
 390 -155 464 -80 464 7 c 2
 464 50 l 1
 423 19 371 0 310 0 c 0
 162 0 54 117 54 274 c 0
119 274 m 0
 119 153 196 65 310 65 c 0
 382 65 433 97 464 144 c 1
 464 403 l 1
 433 450 382 482 310 482 c 0
 197 482 119 395 119 274 c 0
EndSplineSet
Validated: 1
EndChar

StartChar: h
Encoding: 104 104 65
Width: 578
Flags: W
HStem: 0 21G<88 106 477 495> 482 65<196.338 373.411> 748 20G<88 106>
VStem: 65 65<1.90509 428.868 497 765.972> 453 65<1.90509 395.829>
LayerCount: 2
Back
SplineSet
98.40625 735 m 5
 98.40625 32.5 l 1029
98.40625 412.4453125 m 4
 132.235351562 473.077148438 205.833007812 514.5 284.083007812 514.5 c 4
 406.5 514.5 486.674804688 430.587890625 486.674804688 301.845703125 c 6
 486.674804688 32.5 l 1029
EndSplineSet
Fore
SplineSet
453 302 m 2
 453 412 390 482 283 482 c 0
 219 482 159 448 130 403 c 1
 130 32 l 2
 130 14 115 0 97 0 c 0
 79 0 65 14 65 32 c 2
 65 735 l 2
 65 753 79 768 97 768 c 0
 115 768 130 753 130 735 c 2
 130 497 l 1
 173 529 227 547 283 547 c 0
 423 547 518 447 518 302 c 2
 518 32 l 2
 518 14 504 0 486 0 c 0
 468 0 453 14 453 32 c 2
 453 302 l 2
EndSplineSet
Validated: 1
EndChar

StartChar: i
Encoding: 105 105 66
Width: 199
Flags: W
HStem: 0 21G<91 109> 527 20G<91 109> 695 79<64.393 134.819>
VStem: 60 79<699.393 769.819> 67 65<2.12939 544.972>
LayerCount: 2
Back
SplineSet
100 510.327148438 m 5
 100 32.5 l 1029
EndSplineSet
Fore
SplineSet
67 514 m 2xe8
 67 532 82 547 100 547 c 0
 118 547 132 532 132 514 c 2
 132 32 l 2
 132 16 118 0 100 0 c 0
 82 0 67 16 67 32 c 2
 67 514 l 2xe8
60 735 m 0xf0
 60 757 78 774 100 774 c 0
 122 774 139 757 139 735 c 0
 139 713 122 695 100 695 c 0
 78 695 60 713 60 735 c 0xf0
EndSplineSet
Validated: 1
EndChar

StartChar: j
Encoding: 106 106 67
Width: 228
Flags: W
HStem: -225 65<-71.0949 50.9773> 527 20G<114 132> 696 79<88.1809 158.607>
VStem: 84 79<700.393 770.819> 91 65<-122.077 545.021>
LayerCount: 2
Back
SplineSet
-40 -191.5 m 4
 77.3056640625 -191.5 123.809570312 -142.911132812 123.809570312 -23.439453125 c 6
 123.809570312 496.828125 l 1029
EndSplineSet
Fore
SplineSet
84 736 m 0xf0
 84 758 101 775 123 775 c 0
 145 775 163 758 163 736 c 0
 163 714 145 696 123 696 c 0
 101 696 84 714 84 736 c 0xf0
-41 -225 m 0
 -59 -225 -73 -211 -73 -193 c 0
 -73 -175 -59 -160 -41 -160 c 0
 62.42578125 -160 91 -121.43359375 91 -24 c 2
 91 515 l 2
 91 532.336998916 105 547 123 547 c 0
 141 547 156 532.336998916 156 515 c 2
 156 -24 l 2xe8
 156 -160.241210938 93.173828125 -225 -41 -225 c 0
EndSplineSet
Validated: 1
EndChar

StartChar: k
Encoding: 107 107 68
Width: 549
Flags: WO
HStem: 1 20G<88 106 482.5 496> 528 20G<483 496> 749 20G<88 106>
VStem: 65 65<3.02771 181 265 766.972>
LayerCount: 2
Back
SplineSet
97.40625 736.084960938 m 5
 97.40625 33.5849609375 l 1029
97.40625 196.838867188 m 5
 486.421875 515.584960938 l 1029
230.84375 306.172851562 m 5
 486.421875 32.5 l 1029
EndSplineSet
Fore
SplineSet
65 736 m 2
 65 754 79 769 97 769 c 0
 115 769 130 754 130 736 c 2
 130 265 l 1
 466 541 l 2
 472 546 479 548 487 548 c 0
 505 548 519 534 519 516 c 0
 519 506 514 496 507 490 c 2
 278 303 l 1
 510 55 l 2
 515 49 519 42 519 33 c 0
 519 15 505 0 487 0 c 0
 478 0 469 4 463 10 c 2
 228 262 l 1
 130 181 l 1
 130 34 l 2
 130 16 115 1 97 1 c 0
 79 1 65 16 65 34 c 2
 65 736 l 2
EndSplineSet
Validated: 1
EndChar

StartChar: l
Encoding: 108 108 69
Width: 219
Flags: W
HStem: 0 64<132.834 182.351> 748 20G<88 106>
VStem: 65 65<67.063 765.972>
LayerCount: 2
Back
SplineSet
98.8984375 735.000976562 m 5
 98.8984375 112.012695312 l 6
 98.8984375 63.5888671875 113.8984375 42.5888671875 153 32.5 c 1028
EndSplineSet
Fore
SplineSet
65 735 m 2
 65 753 79 768 97 768 c 0
 115 768 130 753 130 735 c 2
 130 112 l 2
 130 81.1110226604 134 70 160 64 c 0
 174.18734996 60.7259961632 184 47 184 32 c 0
 184 14 170 0 152 0 c 0
 98.2646157516 0 65 46.9642495215 65 112 c 2
 65 735 l 2
EndSplineSet
Validated: 1
EndChar

StartChar: m
Encoding: 109 109 70
Width: 813
Flags: W
HStem: 0 21G<89 107 398 416 707 725> 482 65<179.087 316.902 495.043 627.873>
VStem: 65 65<1.90509 436.859> 374 65<1.90509 414.648> 684 65<1.90509 419.083>
LayerCount: 2
Back
SplineSet
97.6064453125 500.327148438 m 5
 97.6064453125 32.5 l 1029
97.6064453125 412.4453125 m 4
 124.571289062 473.077148438 183.235351562 514.5 245.606445312 514.5 c 4
 344.5 514.5 407.08984375 438.587890625 407.08984375 301.845703125 c 6
 407.08984375 32.5 l 1029
407.08984375 316.018554688 m 4
 407.08984375 437.920898438 474.166992188 514.5 557.923828125 514.5 c 4
 656.819335938 514.5 716.57421875 441.422851562 716.57421875 304.6796875 c 6
 716.57421875 32.5 l 1029
EndSplineSet
Fore
SplineSet
65 32 m 2
 65 500 l 1
 66 518 80 533 98 533 c 0
 114 533 128 521 130 506 c 1
 163 532 203 547 246 547 c 0
 317 547 375 512 407 452 c 1
 439 510 492 547 558 547 c 0
 631 547 680 514 710 466 c 0
 736 424 749 370 749 305 c 2
 749 32 l 2
 749 14 734 0 716 0 c 0
 698 0 684 14 684 32 c 2
 684 305 l 2
 684 390 662 448 610 472 c 0
 595 479 578 482 558 482 c 0
 516 482 479 458 457 409 c 0
 446 384 439 353 439 316 c 2
 439 32 l 2
 439 14 425 0 407 0 c 0
 389 0 374 14 374 32 c 2
 374 302 l 2
 374 405 339 482 246 482 c 0
 200 482 153 452 130 405 c 1
 130 32 l 2
 130 14 116 0 98 0 c 0
 80 0 65 14 65 32 c 2
EndSplineSet
Validated: 1
EndChar

StartChar: n
Encoding: 110 110 71
Width: 578
Flags: W
HStem: 0 21G<88 106 477 494.5> 482 65<194.934 373.411>
VStem: 65 65<2.01724 429.255 497 530.972> 453 65<2.01724 395.829>
LayerCount: 2
Back
SplineSet
97.40625 500.327148438 m 5
 97.40625 32.5 l 1029
97.40625 412.4453125 m 4
 131.235351562 473.077148438 204.833007812 514.5 283.083007812 514.5 c 4
 405.5 514.5 485.674804688 430.587890625 485.674804688 301.845703125 c 6
 485.674804688 32.5 l 1029
EndSplineSet
Fore
SplineSet
65 500 m 2
 65 518 79 533 97 533 c 0
 115 533 130 518 130 500 c 2
 130 497 l 1
 172 529 227 547 283 547 c 0
 423 547 518 447 518 302 c 2
 518 32 l 2
 518 15 503 0 486 0 c 0
 468 0 453 15 453 32 c 2
 453 302 l 2
 453 412 390 482 283 482 c 0
 219 482 159 449 130 403 c 1
 130 32 l 2
 130 15 115 0 97 0 c 0
 79 0 65 15 65 32 c 2
 65 500 l 2
EndSplineSet
Validated: 1
EndChar

StartChar: o
Encoding: 111 111 72
Width: 551
Flags: HW
HStem: 0 65<191.854 358.708> 482 65<191.854 358.708>
VStem: 50 65<153.187 394.112> 436 65<153.187 394.112>
LayerCount: 2
Back
SplineSet
469.4140625 273.5 m 4
 469.4140625 140.3984375 412.474609375 32.5 276 32.5 c 4
 139.525390625 32.5 82.5859375 140.3984375 82.5859375 273.5 c 4
 82.5859375 406.600585938 139.525390625 514.5 276 514.5 c 4
 412.47265625 514.5 469.4140625 406.600585938 469.4140625 273.5 c 4
EndSplineSet
Fore
SplineSet
275 547 m 0
 432 547 501 425 501 274 c 0
 501 122 432 0 275 0 c 0
 119 0 50 122 50 274 c 0
 50 425 119 547 275 547 c 0
  Spiro
    275 547 o
    403.27 509.849 o
    477.344 411.768 o
    501 274 o
    477.344 135.529 o
    403.27 37.1882 o
    275 0 o
    147.433 37.1882 o
    73.6187 135.529 o
    50 274 o
    73.6187 411.768 o
    147.433 509.849 o
    0 0 z
  EndSpiro
275 65 m 0
 393 65 436 155 436 274 c 0
 436 392 393 482 275 482 c 0
 158 482 115 392 115 274 c 0
 115 155 158 65 275 65 c 0
  Spiro
    275 65 o
    369.114 92.6875 o
    420.514 167.019 o
    436 274 o
    420.514 380.278 o
    369.114 454.349 o
    275 482 o
    181.59 454.349 o
    130.449 380.278 o
    115 274 o
    130.449 167.019 o
    181.59 92.6875 o
    0 0 z
  EndSpiro
EndSplineSet
EndChar

StartChar: q
Encoding: 113 113 73
Width: 585
Flags: W
HStem: 0 65<215.734 398.026> 482 65<215.314 398.026>
VStem: 50 65<171.757 376.264> 460 65<-218.095 50 117.359 429.641 497 530.972>
LayerCount: 2
Back
SplineSet
493.358398438 -188 m 5
 493.358398438 500.328125 l 1029
493.358398438 134.5546875 m 4
 457.612304688 73.9228515625 393.612304688 32.5 307.038085938 32.5 c 4
 183.25 32.5 83.0888671875 127.74609375 83.0888671875 273.5 c 4
 83.0888671875 419.25390625 182.248046875 514.500976562 307.038085938 514.500976562 c 4
 393.612304688 514.500976562 457.612304688 473.078125 493.358398438 412.446289062 c 1028
EndSplineSet
Fore
SplineSet
115 274 m 0
 115 153 193 65 306 65 c 0
 378 65 429 97 460 144 c 1
 460 403 l 1
 429 450 378 482 306 482 c 0
 192 482 115 395 115 274 c 0
525 -188 m 2
 525 -206 511 -220 493 -220 c 0
 475 -220 460 -206 460 -188 c 2
 460 50 l 1
 419 19 367 0 306 0 c 0
 159 0 50 118 50 274 c 0
 50 431 158 547 306 547 c 0
 367 547 419 528 460 497 c 1
 460 500 l 2
 460 518 475 533 493 533 c 0
 511 533 525 518 525 500 c 2
 525 -188 l 2
EndSplineSet
Validated: 1
EndChar

StartChar: r
Encoding: 114 114 74
Width: 383
Flags: W
HStem: 0 21G<89 107> 482 65<173.322 292.324>
VStem: 65 65<1.90509 436.038>
LayerCount: 2
Back
SplineSet
97.78125 500.327148438 m 5
 97.78125 32.5 l 1029
97.78125 362.838867188 m 4
 97.78125 448.087890625 156.248046875 514.5 236.693359375 514.5 c 4
 273.500976562 514.5 312.500976562 494.420898438 330.75 464.587890625 c 1028
EndSplineSet
Fore
SplineSet
65 500 m 2
 65 518 80 533 98 533 c 0
 113 533 126 522 129 508 c 1
 158 532 194 547 236 547 c 0
 289 547 336 518 358 482 c 0
 361 477 363 471 363 465 c 0
 363 447 348 432 330 432 c 0
 318 432 309 439 303 448 c 0
 292 466 263 482 236 482 c 0
 176 482 130 433 130 363 c 2
 130 32 l 2
 130 14 116 0 98 0 c 0
 80 0 65 14 65 32 c 2
 65 500 l 2
EndSplineSet
Validated: 1
EndChar

StartChar: s
Encoding: 115 115 75
Width: 554
Flags: W
HStem: 0 65<158.71 387.401> 482 65<165.465 391.087>
VStem: 57 65<358.112 445.13> 439 65<108.182 205.548>
LayerCount: 2
Back
SplineSet
434.647460938 475.801757812 m 4
 398.271484375 499.15234375 337.780273438 514.108398438 279.276367188 514.366210938 c 4
 203.823242188 514.69921875 90.4462890625 489.899414062 90.4462890625 403.424804688 c 4
 90.4462890625 323.850585938 168 300.5 256 285.913085938 c 4
 357.493164062 269.08984375 472.721679688 255.104492188 472.721679688 156.84765625 c 4
 472.721679688 67.2861328125 372.20703125 32.5 275.815429688 32.5 c 4
 191.349609375 32.5 125.216796875 58.2763671875 78.51171875 96.5380859375 c 1028
EndSplineSet
Fore
SplineSet
57 403 m 0
 57 509.277144236 173.324985615 547 277 547 c 0
 342 547 406 532 451 503 c 0
 460 497 466 487 466 476 c 0
 466 458 452 443 434 443 c 0
 428 443 421 445 416 448 c 0
 387 467 331 482 277 482 c 0
 213.767032545 482 122 463.53095991 122 403 c 0
 122 337.548683813 209.736328125 325.126953125 275 315 c 0
 377.594726562 297.6953125 504 275.145544517 504 157 c 0
 504 43.822300712 386.268581715 0 275 0 c 0
 184 0 110 28 57 71 c 0
 50 77 45 87 45 97 c 0
 45 115 59 129 77 129 c 0
 85 129 92 127 98 122 c 0
 138 89 197 65 275 65 c 0
 349.306826957 65 439 88.7398029251 439 157 c 0
 439 234.268020369 323.553710938 242.741210938 250 255 c 0
 159.6171875 269.65625 57 297 57 403 c 0
EndSplineSet
Validated: 1
EndChar

StartChar: t
Encoding: 116 116 76
Width: 293
Flags: W
HStem: 0 65<180.214 251.095> 482 65<22.0277 109 174 271.095> 748 20G<132 150>
VStem: 109 65<71.1451 482 547 765.972>
LayerCount: 2
Back
SplineSet
221.512695312 32.5 m 4
 161.942382812 32.5 142 65.587890625 142 134.686523438 c 6
 142 735 l 1029
53.5 514.5 m 5
 241.5 514.5 l 1029
EndSplineSet
Fore
SplineSet
53 482 m 2
 35 482 20 496 20 514 c 0
 20 532 35 547 53 547 c 2
 109 547 l 1
 109 735 l 2
 109 753 123 768 141 768 c 0
 159 768 174 753 174 735 c 2
 174 547 l 1
 241 547 l 2
 259 547 273 532 273 514 c 0
 273 496 259 482 241 482 c 2
 174 482 l 1
 174 135 l 2
 174 85 179 65 221 65 c 0
 239 65 253 50 253 32 c 0
 253 14 239 0 221 0 c 0
 139 0 109 55 109 135 c 2
 109 482 l 1
 53 482 l 2
EndSplineSet
Validated: 1
EndChar

StartChar: u
Encoding: 117 117 77
Width: 578
Flags: W
HStem: 0 65<204.589 381.662> 527 20G<84 102 472 490>
VStem: 60 65<151.171 544.972> 448 65<16.0277 50 118.132 544.972>
LayerCount: 2
Back
SplineSet
481.674804688 46.6728515625 m 5
 481.674804688 514.5 l 1029
481.674804688 134.5546875 m 4
 447.845703125 73.9228515625 374.247070312 32.5 295.997070312 32.5 c 4
 173.580078125 32.5 93.40625 116.412109375 93.40625 245.154296875 c 6
 93.40625 514.5 l 1029
EndSplineSet
Fore
SplineSet
513 47 m 2
 513 29 499 14 481 14 c 0
 463 14 448 29 448 47 c 2
 448 50 l 1
 405 18 351 0 295 0 c 0
 155 0 60 100 60 245 c 2
 60 514 l 2
 60 532 75 547 93 547 c 0
 111 547 125 532 125 514 c 2
 125 245 l 2
 125 135 188 65 295 65 c 0
 359 65 419 99 448 144 c 1
 448 514 l 2
 448 532 463 547 481 547 c 0
 499 547 513 532 513 514 c 2
 513 47 l 2
EndSplineSet
Validated: 1
EndChar

StartChar: w
Encoding: 119 119 78
Width: 720
Flags: W
HStem: 0 21G<194 208 512 526> 527 20G<34 50 353 367 671 687>
VStem: 10 63<525 544.975> 647 63<525 545.351>
LayerCount: 2
Back
SplineSet
42.2744140625 514.5 m 5
 201.13671875 32.5 l 5
 360 514.5 l 5
 518.864257812 32.5 l 5
 677.7265625 514.5 l 1029
EndSplineSet
Fore
SplineSet
10 515 m 0
 10 533 25 547 43 547 c 0
 57 547 69 538 73 525 c 2
 201 136 l 1
 329 525 l 2
 333 537 346 547 360 547 c 0
 374 547 387 537 391 525 c 2
 519 136 l 1
 647 525 l 2
 651 538 664 547 678 547 c 0
 696 547 710 533 710 515 c 0
 710 511 710 507 709 504 c 2
 550 22 l 2
 546 10 533 0 519 0 c 0
 505 0 492 10 488 22 c 2
 360 411 l 1
 232 22 l 2
 228 10 215 0 201 0 c 0
 187 0 175 10 171 22 c 2
 12 504 l 2
 11 507 10 511 10 515 c 0
EndSplineSet
Validated: 1
EndChar

StartChar: y
Encoding: 121 121 79
Width: 504
Flags: W
HStem: -218 65<21.0277 123.795>
VStem: 432 62<530 547.016>
LayerCount: 2
Back
SplineSet
256.263671875 65.0634765625 m 5
 41.6611328125 516.912109375 l 1029
50.673828125 -185.588867188 m 4
 115.000976562 -185.588867188 153.669921875 -162.100585938 175.244140625 -114.333007812 c 6
 460.3359375 516.912109375 l 1029
EndSplineSet
Fore
SplineSet
206 -128 m 2
 181 -184 132 -218 52 -218 c 0
 34 -218 19 -204 19 -186 c 0
 19 -168 34 -153 52 -153 c 0
 105 -153 129 -138 146 -101 c 2
 221 65 l 1
 13 503 l 2
 11 507 10 512 10 517 c 0
 10 535 25 549 43 549 c 0
 56 549 67 542 72 531 c 2
 256 142 l 1
 432 530 l 2
 437 541 448 549 461 549 c 0
 479 549 494 535 494 517 c 0
 494 512 493 508 491 504 c 2
 206 -128 l 2
EndSplineSet
Validated: 1
EndChar

StartChar: z
Encoding: 122 122 80
Width: 546
Flags: W
HStem: 0 65<142 513.972> 482 65<49.0277 406>
LayerCount: 2
Back
SplineSet
78.58203125 514.5 m 5
 475.0859375 514.5 l 5
 71.4951171875 32.5 l 5
 482.170898438 32.5 l 1029
EndSplineSet
Fore
SplineSet
476 547 m 2
 496 547 509 530 509 514 c 0
 509 505 505 499 501 494 c 2
 142 65 l 1
 483 65 l 2
 501 65 516 50 516 32 c 0
 516 14 501 0 483 0 c 2
 72 0 l 2
 52 0 40 17 40 33 c 0
 40 42 44 48 48 53 c 2
 406 482 l 1
 80 482 l 2
 62 482 47 496 47 514 c 0
 47 532 62 547 80 547 c 2
 476 547 l 2
EndSplineSet
Validated: 1
EndChar

StartChar: glyph83
Encoding: 8217 8217 82
Width: 148
Flags: W
HStem: 558 211<43 92>
VStem: 63 65<630.701 765.513>
LayerCount: 2
Fore
SplineSet
92 769 m 0
 126.381835938 769 128 726.67578125 128 694 c 0
 128 630 101 587 60 562 c 0
 55 559 49 558 43 558 c 0
 25 558 10 572 10 590 c 0
 10 602 17 612 26 618 c 0
 51.7099609375 633.42578125 63 654.736328125 63 694 c 0
 63 705.849609375 59 722.322265625 59 736 c 0
 59 754 74 769 92 769 c 0
EndSplineSet
Validated: 1
EndChar

StartChar: quotesingle
Encoding: 39 39 83
Width: 168
Flags: W
HStem: 557 211<58 107>
VStem: 78 65<629.701 764.513>
LayerCount: 2
Fore
SplineSet
107 768 m 0
 141.381835938 768 143 725.67578125 143 693 c 0
 143 629 116 586 75 561 c 0
 70 558 64 557 58 557 c 0
 40 557 25 571 25 589 c 0
 25 601 32 611 41 617 c 0
 66.7099609375 632.42578125 78 653.736328125 78 693 c 0
 78 704.849609375 74 721.322265625 74 735 c 0
 74 753 89 768 107 768 c 0
EndSplineSet
Validated: 1
EndChar

StartChar: at
Encoding: 64 64 84
Width: 1088
Flags: W
HStem: -218 65<412.552 677.049> -12 65<762 874.506> 2 65<443.314 626.267> 484 65<443.734 626.026> 705 65<412.552 675.448>
VStem: 50 65<144.552 407.448> 278 65<173.551 378.058> 688 65<119.359 432.534 500 533.095> 973 65<172.421 407.448>
LayerCount: 2
Back
SplineSet
720.56640625 414.857421875 m 0
 684.8203125 475.489257812 620.8203125 516.912109375 534.24609375 516.912109375 c 0
 410.458007812 516.912109375 310.296875 421.666015625 310.296875 275.912109375 c 0
 310.296875 130.158203125 409.456054688 34.9111328125 534.24609375 34.9111328125 c 0
 620.8203125 34.9111328125 684.8203125 76.333984375 720.56640625 136.965820312 c 1024
720.56640625 502.739257812 m 1
 720.56640625 96 l 2
 720.56640625 55 761.333984375 20.7392578125 817.384765625 20.7392578125 c 0
 906.186523438 20.7392578125 1005.27929688 139.666992188 1005.27929688 275.912109375 c 0
 1005.27929688 530.791015625 798.658203125 737.412109375 543.778320312 737.412109375 c 0
 288.8984375 737.412109375 82.27734375 530.791015625 82.27734375 275.912109375 c 0
 82.27734375 21.0322265625 288.8984375 -185.588867188 543.778320312 -185.588867188 c 0
 644.940429688 -185.588867188 738.499023438 -153.0390625 814.5546875 -97.841796875 c 1024
EndSplineSet
Fore
SplineSet
753 96 m 2xbf80
 753 79 772 53 817 53 c 0
 837 53 861 63 885 82 c 0
 933 121 973 195 973 276 c 0
 973 513 781 705 544 705 c 0
 307 705 115 513 115 276 c 0
 115 39 307 -153 544 -153 c 0
 638 -153 724 -123 795 -72 c 0
 800 -68 808 -65 815 -65 c 0
 833 -65 847 -80 847 -98 c 0
 847 -109 842 -118 834 -124 c 0
 753 -183 652 -218 544 -218 c 0
 271 -218 50 3 50 276 c 0
 50 549 271 770 544 770 c 0
 817 770 1038 549 1038 276 c 0
 1038 175 990 83 926 31 c 0
 894 5 856 -12 817 -12 c 0xdf80
 764 -12 715 15 696 58 c 1
 654 23 599 2 534 2 c 0
 386 2 278 119 278 276 c 0
 278 432 387 549 534 549 c 0
 595 549 647 531 688 500 c 1
 688 503 l 2
 688 521 703 535 721 535 c 0
 739 535 753 521 753 503 c 2
 753 96 l 2xbf80
688 146 m 1
 688 406 l 1
 657 453 606 484 534 484 c 0
 421 484 343 397 343 276 c 0
 343 155 420 67 534 67 c 0xbf80
 606 67 657 99 688 146 c 1
EndSplineSet
Validated: 1
EndChar

StartChar: underscore
Encoding: 95 95 85
Width: 438
Flags: W
HStem: 2 65<21.9051 415.972>
LayerCount: 2
Back
SplineSet
385.081054688 34.869140625 m 5
 52.166015625 34.869140625 l 1029
EndSplineSet
Fore
SplineSet
385 67 m 2
 403 67 418 53 418 35 c 0
 418 17 403 2 385 2 c 2
 52 2 l 2
 34 2 20 17 20 35 c 0
 20 53 34 67 52 67 c 2
 385 67 l 2
EndSplineSet
Validated: 1
EndChar

StartChar: bar
Encoding: 124 124 86
Width: 125
Flags: W
VStem: 30 65<-72.0949 767.972>
LayerCount: 2
Back
SplineSet
63 737 m 29
 63 737 63 262 63 -42 c 1052
EndSplineSet
Fore
SplineSet
30 737 m 2
 30 755 45 770 63 770 c 0
 81 770 95 755 95 737 c 2
 95 -42 l 2
 95 -60 81 -74 63 -74 c 0
 45 -74 30 -60 30 -42 c 2
 30 737 l 2
EndSplineSet
Validated: 1
EndChar

StartChar: asterisk
Encoding: 42 42 87
Width: 433
Flags: W
VStem: 184 65<373.905 515 627 767.972>
LayerCount: 2
Back
SplineSet
216.624023438 404.497070312 m 5
 216.624023438 737.412109375 l 1029
360.78125 487.725585938 m 5
 72.466796875 654.182617188 l 1029
360.78125 654.182617188 m 5
 72.466796875 487.724609375 l 1029
EndSplineSet
Fore
SplineSet
361 687 m 0
 379 687 393 672 393 654 c 0
 393 642 387 632 377 626 c 2
 282 571 l 1
 377 516 l 2
 387 510 393 500 393 488 c 0
 393 470 379 455 361 455 c 0
 355 455 350 457 345 460 c 2
 249 515 l 1
 249 404 l 2
 249 386 235 372 217 372 c 0
 199 372 184 386 184 404 c 2
 184 515 l 1
 89 460 l 2
 84 457 78 455 72 455 c 0
 54 455 40 470 40 488 c 0
 40 500 46 510 56 516 c 2
 152 571 l 1
 56 626 l 2
 46 632 40 642 40 654 c 0
 40 672 54 687 72 687 c 0
 78 687 84 685 89 682 c 2
 184 627 l 1
 184 737 l 2
 184 755 199 770 217 770 c 0
 235 770 249 755 249 737 c 2
 249 627 l 1
 345 682 l 2
 350 685 355 687 361 687 c 0
EndSplineSet
Validated: 1
EndChar

StartChar: asciitilde
Encoding: 126 126 88
Width: 490
Flags: W
HStem: 205 65<278.801 363.473> 288 65<126.124 211.112>
VStem: 50 64<217.862 275.847> 375 65<282.153 339.891>
LayerCount: 2
Back
SplineSet
406.580078125 308.947265625 m 4
 399.913085938 271.360351562 364.913085938 237.364257812 325.559570312 237.364257812 c 4
 286.206054688 237.364257812 270.284179688 253.204101562 244.5390625 278.947265625 c 4
 218.794921875 304.692382812 202.872070312 320.532226562 163.518554688 320.532226562 c 4
 124.165039062 320.532226562 89.1650390625 286.534179688 82.498046875 248.948242188 c 1028
EndSplineSet
Fore
SplineSet
407 342 m 0
 425 342 440 327 440 309 c 0
 440 307 439 305 439 303 c 0
 430 253 386 205 326 205 c 0
 275 205 247 231 222 256 c 0
 207 271 198 279 190 283 c 0
 184 286 178 288 164 288 c 0
 140 288 118 263 114 243 c 0
 111 228 98 216 82 216 c 0
 64 216 50 231 50 249 c 0
 50 251 50 253 50 255 c 0
 59 305 104 353 164 353 c 0
 215 353 243 327 268 302 c 0
 283 287 291 279 299 275 c 0
 305 272 312 270 326 270 c 0
 350 270 371 295 375 315 c 0
 378 330 391 342 407 342 c 0
EndSplineSet
Validated: 1
EndChar

StartChar: plusminus
Encoding: 177 177 89
Width: 498
Flags: W
HStem: 95 65<51.9051 445.972> 460 65<51.9051 216 281 445.972>
VStem: 216 65<295.028 460 525 689.095>
LayerCount: 2
Back
SplineSet
415.081054688 492.400390625 m 5
 82.166015625 492.400390625 l 1029
415.081054688 127.91796875 m 5
 82.166015625 127.91796875 l 1029
248.624023438 325.942382812 m 5
 248.624023438 658.857421875 l 1029
EndSplineSet
Fore
SplineSet
281 326 m 2
 281 308 267 293 249 293 c 0
 231 293 216 308 216 326 c 2
 216 460 l 1
 82 460 l 2
 64 460 50 474 50 492 c 0
 50 510 64 525 82 525 c 2
 216 525 l 1
 216 659 l 2
 216 677 231 691 249 691 c 0
 267 691 281 677 281 659 c 2
 281 525 l 1
 415 525 l 2
 433 525 448 510 448 492 c 0
 448 474 433 460 415 460 c 2
 281 460 l 1
 281 326 l 2
415 160 m 2
 433 160 448 146 448 128 c 0
 448 110 433 95 415 95 c 2
 82 95 l 2
 64 95 50 110 50 128 c 0
 50 146 64 160 82 160 c 2
 415 160 l 2
EndSplineSet
Validated: 1
EndChar

StartChar: exclamdown
Encoding: 161 161 90
Width: 139
Flags: W
HStem: 468 79<34.393 104.819>
VStem: 30 79<472.181 542.607> 37 65<-218.972 324.983>
LayerCount: 2
Fore
SplineSet
102 -188 m 2xa0
 102 -206 87 -221 69 -221 c 0
 51 -221 37 -206 37 -188 c 2
 37 295 l 2
 37 312 51 327 69 327 c 0
 87 327 102 312 102 295 c 2
 102 -188 l 2xa0
109 507 m 0xc0
 109 485 92 468 70 468 c 0
 48 468 30 485 30 507 c 0
 30 529 48 547 70 547 c 0
 92 547 109 529 109 507 c 0xc0
EndSplineSet
Validated: 1
EndChar

StartChar: quotedblleft
Encoding: 8220 8220 91
Width: 286
Flags: W
HStem: 558 211<56 105 184 233>
VStem: 20 65<561.487 696.299> 148 65<561.487 696.299>
LayerCount: 2
Fore
SplineSet
56 558 m 0
 21.6181640625 558 20 600.32421875 20 633 c 0
 20 697 47 740 88 765 c 0
 93 768 99 769 105 769 c 0
 123 769 138 755 138 737 c 0
 138 725 131 715 122 709 c 0
 96.2900390625 693.57421875 85 672.263671875 85 633 c 0
 85 621.150390625 89 604.677734375 89 591 c 0
 89 573 74 558 56 558 c 0
184 558 m 0
 149.618164062 558 148 600.32421875 148 633 c 0
 148 697 175 740 216 765 c 0
 221 768 227 769 233 769 c 0
 251 769 266 755 266 737 c 0
 266 725 259 715 250 709 c 0
 224.290039062 693.57421875 213 672.263671875 213 633 c 0
 213 621.150390625 217 604.677734375 217 591 c 0
 217 573 202 558 184 558 c 0
EndSplineSet
Validated: 1
EndChar

StartChar: quotedblright
Encoding: 8221 8221 92
Width: 276
Flags: W
HStem: 558 211<43 92 171 220>
VStem: 63 65<630.701 765.513> 191 65<630.701 765.513>
LayerCount: 2
Fore
SplineSet
220 769 m 4
 254.381835938 769 256 726.67578125 256 694 c 4
 256 630 229 587 188 562 c 4
 183 559 177 558 171 558 c 4
 153 558 138 572 138 590 c 4
 138 602 145 612 154 618 c 4
 179.709960938 633.42578125 191 654.736328125 191 694 c 4
 191 705.849609375 187 722.322265625 187 736 c 4
 187 754 202 769 220 769 c 4
92 769 m 4
 126.381835938 769 128 726.67578125 128 694 c 4
 128 630 101 587 60 562 c 4
 55 559 49 558 43 558 c 4
 25 558 10 572 10 590 c 4
 10 602 17 612 26 618 c 4
 51.7099609375 633.42578125 63 654.736328125 63 694 c 4
 63 705.849609375 59 722.322265625 59 736 c 4
 59 754 74 769 92 769 c 4
EndSplineSet
Validated: 1
EndChar

StartChar: multiply
Encoding: 215 215 93
Width: 453
Flags: W
LayerCount: 2
Back
SplineSet
380.334960938 407.625 m 5
 72.9111328125 100.200195312 l 1029
380.336914062 100.200195312 m 5
 72.9111328125 407.625 l 1029
EndSplineSet
Fore
SplineSet
413 100 m 0
 413 82 398 68 380 68 c 0
 371 68 363 71 357 77 c 2
 227 208 l 1
 96 77 l 2
 90 71 82 68 73 68 c 0
 55 68 40 82 40 100 c 0
 40 109 44 117 50 123 c 2
 181 254 l 1
 50 385 l 2
 44 391 40 399 40 408 c 0
 40 426 55 440 73 440 c 0
 82 440 90 437 96 431 c 2
 227 300 l 1
 357 431 l 2
 363 437 371 440 380 440 c 0
 398 440 413 426 413 408 c 0
 413 399 409 391 403 385 c 2
 273 254 l 1
 403 123 l 2
 409 117 413 109 413 100 c 0
EndSplineSet
Validated: 1
EndChar

StartChar: uni00AD
Encoding: 173 173 94
Width: 498
Flags: W
HStem: 246 65<52.0277 445.972>
LayerCount: 2
Fore
SplineSet
415 311 m 2
 433 311 448 297 448 279 c 0
 448 261 433 246 415 246 c 2
 83 246 l 2
 65 246 50 261 50 279 c 0
 50 297 65 311 83 311 c 2
 415 311 l 2
EndSplineSet
Validated: 1
EndChar

StartChar: divide
Encoding: 247 247 95
Width: 498
Flags: W
HStem: 52 79<213.393 283.819> 221 65<51.9051 445.972> 377 79<213.393 283.819>
VStem: 209 79<56.393 126.819 381.181 451.607>
LayerCount: 2
Back
SplineSet
417.475585938 254.823242188 m 1029
208.94921875 91.603515625 m 4
 208.94921875 113.515625 226.711914062 131.279296875 248.624023438 131.279296875 c 4
 270.536132812 131.279296875 288.298828125 113.515625 288.298828125 91.603515625 c 4
 288.298828125 69.6923828125 270.536132812 51.9287109375 248.624023438 51.9287109375 c 4
 226.711914062 51.9287109375 208.94921875 69.6923828125 208.94921875 91.603515625 c 4
415.081054688 253.912109375 m 5
 82.166015625 253.912109375 l 1029
208.94921875 416.220703125 m 4
 208.94921875 438.1328125 226.711914062 455.896484375 248.624023438 455.896484375 c 4
 270.536132812 455.896484375 288.298828125 438.1328125 288.298828125 416.220703125 c 4
 288.298828125 394.309570312 270.536132812 376.545898438 248.624023438 376.545898438 c 4
 226.711914062 376.545898438 208.94921875 394.309570312 208.94921875 416.220703125 c 4
EndSplineSet
Fore
SplineSet
209 92 m 0
 209 114 227 131 249 131 c 0
 271 131 288 114 288 92 c 0
 288 70 271 52 249 52 c 0
 227 52 209 70 209 92 c 0
415 286 m 2
 433 286 448 272 448 254 c 0
 448 236 433 221 415 221 c 2
 82 221 l 2
 64 221 50 236 50 254 c 0
 50 272 64 286 82 286 c 2
 415 286 l 2
209 416 m 0
 209 438 227 456 249 456 c 0
 271 456 288 438 288 416 c 0
 288 394 271 377 249 377 c 0
 227 377 209 394 209 416 c 0
EndSplineSet
Validated: 1
EndChar

StartChar: quoteleft
Encoding: 8216 8216 96
Width: 148
Flags: W
HStem: 557 211<56 105>
VStem: 20 65<560.487 695.299>
LayerCount: 2
Fore
SplineSet
56 557 m 0
 21.6181640625 557 20 599.32421875 20 632 c 0
 20 696 47 739 88 764 c 0
 93 767 99 768 105 768 c 0
 123 768 138 754 138 736 c 0
 138 724 131 714 122 708 c 0
 96.2900390625 692.57421875 85 671.263671875 85 632 c 0
 85 620.150390625 89 603.677734375 89 590 c 0
 89 572 74 557 56 557 c 0
EndSplineSet
Validated: 1
EndChar

StartChar: endash
Encoding: 8211 8211 97
Width: 513
Flags: W
HStem: 246 65<22.0277 490.972>
LayerCount: 2
Fore
SplineSet
460 311 m 2
 478 311 493 297 493 279 c 0
 493 261 478 246 460 246 c 2
 53 246 l 2
 35 246 20 261 20 279 c 0
 20 297 35 311 53 311 c 2
 460 311 l 2
EndSplineSet
Validated: 1
EndChar

StartChar: emdash
Encoding: 8212 8212 98
Width: 833
Flags: W
HStem: 246 65<22.0277 810.972>
LayerCount: 2
Fore
SplineSet
780 311 m 2
 798 311 813 297 813 279 c 0
 813 261 798 246 780 246 c 2
 53 246 l 2
 35 246 20 261 20 279 c 0
 20 297 35 311 53 311 c 2
 780 311 l 2
EndSplineSet
Validated: 1
EndChar

StartChar: quotedbl
Encoding: 34 34 99
Width: 252
Flags: HW
HStem: 558 210<31.6491 93.2439 158.756 220.351>
VStem: 30 65<559.905 766.095> 157 65<559.905 766.095>
LayerCount: 2
Back
SplineSet
62.5 736 m 1
 62.5 590.5 l 1049
189.5 736 m 1
 189.5 590.5 l 1049
EndSplineSet
Fore
SplineSet
30 736 m 2
 30 754 44 768 62 768 c 0
 80 768 95 754 95 736 c 2
 95 590 l 2
 95 572 80 558 62 558 c 0
 44 558 30 572 30 590 c 2
 30 736 l 2
157 736 m 2
 157 754 172 768 190 768 c 0
 208 768 222 754 222 736 c 2
 222 590 l 2
 222 572 208 558 190 558 c 0
 172 558 157 572 157 590 c 2
 157 736 l 2
EndSplineSet
EndChar

StartChar: quotedbl
Encoding: 34 34 100
Width: 268
Flags: HW
LayerCount: 2
Back
SplineSet
195.5 579.5 m 4
 195.5 735.5 l 25
 195.5 579.5 l 4
72.5 579.5 m 4
 72.5 735.5 l 25
 72.5 579.5 l 4
EndSplineSet
Fore
SplineSet
163 579.5 m 2
 163 735.5 l 2
 163 753.4375 177.5625 768 195.5 768 c 0
 213.4375 768 228 753.4375 228 735.5 c 2
 228 579.5 l 2
 228 561.5625 213.4375 547 195.5 547 c 0
 177.5625 547 163 561.5625 163 579.5 c 2
40 579.5 m 2
 40 735.5 l 2
 40 753.4375 54.5625 768 72.5 768 c 0
 90.4375 768 105 753.4375 105 735.5 c 2
 105 579.5 l 2
 105 561.5625 90.4375 547 72.5 547 c 0
 54.5625 547 40 561.5625 40 579.5 c 2
EndSplineSet
EndChar

StartChar: uniFB01
Encoding: 64257 64257 101
Width: 485
Flags: W
HStem: 0 21G<131 149 377 395> 482 65<22.0277 108 173 353> 702 65<186.25 422.972>
VStem: 108 65<1.90509 482 547 688.725> 353 65<2.12939 482>
LayerCount: 2
Fore
SplineSet
353 482 m 1
 173 482 l 1
 173 32 l 2
 173 14 158 0 140 0 c 0
 122 0 108 14 108 32 c 2
 108 482 l 1
 53 482 l 2
 35 482 20 496 20 514 c 0
 20 532 35 547 53 547 c 2
 108 547 l 1
 108 617 l 2
 108 657 113 692 134 720 c 0
 161 756 205 767 258 767 c 2
 392 767 l 2
 410 767 425 753 425 735 c 0
 425 717 410 702 392 702 c 2
 258 702 l 2
 213 702 195 693 186 681 c 0
 178 671 173 651 173 617 c 2
 173 547 l 1
 386 547 l 2
 404 547 418 532 418 514 c 2
 418 32 l 2
 418 16 404 0 386 0 c 0
 368 0 353 16 353 32 c 2
 353 482 l 1
EndSplineSet
Validated: 1
EndChar

StartChar: NameMe.258
Encoding: 9634 9634 102
Width: 1000
Flags: W
HStem: 0 65<307 698> 456 65<307 698>
VStem: 242 65<65 456> 698 65<65 456>
LayerCount: 2
Back
SplineSet
274.594726562 32.5 m 5
 274.594726562 488.239257812 l 5
 730.333007812 488.239257812 l 5
 730.333007812 32.5 l 5
 274.594726562 32.5 l 5
EndSplineSet
Fore
SplineSet
763 32 m 2
 763 14 748 0 730 0 c 2
 275 0 l 2
 257 0 242 14 242 32 c 2
 242 488 l 2
 242 506 257 521 275 521 c 2
 730 521 l 2
 748 521 763 506 763 488 c 2
 763 32 l 2
307 456 m 1
 307 65 l 1
 698 65 l 1
 698 456 l 1
 307 456 l 1
EndSplineSet
Validated: 1
EndChar

StartChar: NameMe.259
Encoding: 9711 9711 103
Width: 619
Flags: HW
HStem: 129 65<220.354 397.813> 583 65<220.354 397.813>
VStem: 50 65<300.187 477.646> 504 65<300.187 477.646>
LayerCount: 2
Back
SplineSet
82.48828125 388.668945312 m 4
 82.48828125 514.041015625 184.122070312 615.674804688 309.494140625 615.674804688 c 4
 434.866210938 615.674804688 536.5 514.041015625 536.5 388.668945312 c 4
 536.5 263.296875 434.866210938 161.663085938 309.494140625 161.663085938 c 4
 184.122070312 161.663085938 82.48828125 263.296875 82.48828125 388.668945312 c 4
EndSplineSet
Fore
SplineSet
50 389 m 0
 50 532 166 648 309 648 c 0
 452 648 569 532 569 389 c 0
 569 246 452 129 309 129 c 0
 166 129 50 246 50 389 c 0
115 389 m 0
 115 282 202 194 309 194 c 0
 416 194 504 282 504 389 c 0
 504 496 416 583 309 583 c 0
 202 583 115 496 115 389 c 0
EndSplineSet
EndChar

StartChar: sterling
Encoding: 163 163 104
Width: 566
Flags: W
HStem: 0 65<147 530.972> 348 64<11.7561 82 147 360.244> 702 66<223.802 405.013>
VStem: 82 65<65 348 412 627.549> 471 65<533.905 638.682>
LayerCount: 2
Back
SplineSet
43 380 m 29
 329 380 l 1053
500.490234375 32.5 m 29
 114.490234375 32.5 l 21
 114.491210938 547.448242188 l 4
 114.491210938 651.030273438 194.200195312 735 309.12890625 735 c 4
 428.5 735 503.766601562 666.587890625 503.766601562 564.456054688 c 1028
EndSplineSet
Fore
SplineSet
471 564 m 0
 471 654 404 702 309 702 c 0
 211 702 147 633 147 547 c 0
 147 412 l 1
 329 412 l 2
 347 412 362 398 362 380 c 0
 362 362 347 348 329 348 c 2
 147 348 l 1
 147 65 l 1
 500 65 l 2
 518 65 533 50 533 32 c 0
 533 14 518 0 500 0 c 2
 114 0 l 2
 96 0 82 15 82 33 c 2
 82 348 l 1
 43 348 l 2
 25 348 10 362 10 380 c 0
 10 398 25 412 43 412 c 2
 82 412 l 1
 82 547 l 2
 82 668 177 768 309 768 c 0
 440 768 536 688 536 564 c 0
 536 546 522 532 504 532 c 0
 486 532 471 546 471 564 c 0
EndSplineSet
Validated: 1
EndChar

StartChar: dollar
Encoding: 36 36 105
Width: 625
Flags: HW
LayerCount: 2
Fore
SplineSet
528 679 m 4
 528 661 514 646 496 646 c 4
 488 646 482 649 476 653 c 4
 441 681 374 702 311 702 c 4
 252 702 189 680 159 647 c 4
 143 629 132 607 132 577 c 4
 132 520 158 493 195 472 c 4
 228 453 273 440 321 428 c 4
 415 404 516 377 559 296 c 4
 572 271 580 243 580 210 c 4
 580 120 527 64 467 34 c 4
 428.578571286 14.789285643 385.031426654 4.54857414271 342 1.22643499134 c 5
 342 -113 l 6
 342 -131 328 -145 310 -145 c 4
 292 -145 277 -131 277 -113 c 6
 277 1.30715120404 l 5
 184.190081505 8.75264347873 108.657760431 47.4462107099 54 103 c 4
 48 109 45 117 45 126 c 4
 45 144 59 158 77 158 c 4
 86 158 95 155 101 149 c 4
 150 99 219 65 310 65 c 4
 392 65 473 96 502 152 c 4
 510 168 515 187 515 210 c 4
 515 233 510 250 502 265 c 4
 470 324 381 345 304 365 c 4
 199 392 67 431 67 577 c 4
 67 623 85 662 111 691 c 4
 148.041763861 731.487509336 210.313996719 758.617711555 278 765.358874906 c 5
 278 880 l 6
 278 898 293 912 311 912 c 4
 329 912 343 898 343 880 c 6
 343 765.711259627 l 5
 408.338130827 760.458518235 472.149390453 739.252450812 516 704 c 4
 523 698 528 689 528 679 c 4
EndSplineSet
EndChar

StartChar: numbersign
Encoding: 35 35 106
Width: 718
Flags: HW
LayerCount: 2
Back
SplineSet
613.509765625 260.456054688 m 29
 62.5 260.456054688 l 5
 613.509765625 260.456054688 l 29
656.39453125 519.456054688 m 29
 108.384765625 515.456054688 l 5
 656.39453125 519.456054688 l 29
134.504882812 31 m 29
 319.4765625 734 l 5
 134.504882812 31 l 29
388.504882812 31 m 29
 573.4765625 734 l 5
 388.504882812 31 l 29
613.509765625 260.456054688 m 29
 62.5 260.456054688 l 5
 613.509765625 260.456054688 l 29
656.39453125 519.456054688 m 29
 108.384765625 515.456054688 l 5
 656.39453125 519.456054688 l 29
134.504882812 31 m 29
 319.4765625 734 l 5
 134.504882812 31 l 29
388.504882812 31 m 29
 573.4765625 734 l 5
 388.504882812 31 l 29
EndSplineSet
Fore
SplineSet
542.04296875 742.28125 m 2
 545.708984375 756.215820312 558.403320312 766.504882812 573.482421875 766.504882812 c 0
 591.422851562 766.504882812 605.98828125 751.939453125 605.98828125 733.998046875 c 0
 605.98828125 731.13671875 605.618164062 728.360351562 604.915039062 725.73828125 c 2
 559.002929688 551.24609375 l 1
 656.403320312 551.95703125 l 2
 674.340820312 551.95703125 688.903320312 537.393554688 688.903320312 519.456054688 c 0
 688.903320312 501.599609375 674.471679688 487.086914062 656.635742188 486.95703125 c 2
 541.8671875 486.119140625 l 1
 491.04296875 292.956054688 l 1
 613.509765625 292.956054688 l 2
 631.447265625 292.956054688 646.009765625 278.393554688 646.009765625 260.456054688 c 0
 646.009765625 242.518554688 631.447265625 227.956054688 613.509765625 227.956054688 c 2
 473.940429688 227.956054688 l 1
 419.938476562 22.71875 l 2
 416.272460938 8.7841796875 403.578125 -1.5048828125 388.499023438 -1.5048828125 c 0
 370.55859375 -1.5048828125 355.993164062 13.060546875 355.993164062 31.001953125 c 0
 355.993164062 33.86328125 356.36328125 36.6396484375 357.06640625 39.26171875 c 2
 406.71484375 227.956054688 l 1
 219.940429688 227.956054688 l 1
 165.938476562 22.71875 l 2
 162.272460938 8.7841796875 149.578125 -1.5048828125 134.499023438 -1.5048828125 c 0
 116.55859375 -1.5048828125 101.993164062 13.060546875 101.993164062 31.001953125 c 0
 101.993164062 33.86328125 102.36328125 36.6396484375 103.06640625 39.26171875 c 2
 152.71484375 227.956054688 l 1
 62.5 227.956054688 l 2
 44.5625 227.956054688 30 242.518554688 30 260.456054688 c 0
 30 278.393554688 44.5625 292.956054688 62.5 292.956054688 c 2
 169.817382812 292.956054688 l 1
 220.024414062 483.770507812 l 1
 108.375976562 482.955078125 l 2
 90.4384765625 482.955078125 75.8759765625 497.518554688 75.8759765625 515.456054688 c 0
 75.8759765625 533.3125 90.3076171875 547.825195312 108.143554688 547.955078125 c 2
 237.16015625 548.896484375 l 1
 288.04296875 742.28125 l 2
 291.708984375 756.215820312 304.403320312 766.504882812 319.482421875 766.504882812 c 0
 337.422851562 766.504882812 351.98828125 751.939453125 351.98828125 733.998046875 c 0
 351.98828125 731.13671875 351.618164062 728.360351562 350.915039062 725.73828125 c 2
 304.514648438 549.388671875 l 1
 491.6484375 550.754882812 l 1
 542.04296875 742.28125 l 2
287.37890625 484.26171875 m 1
 237.04296875 292.956054688 l 1
 423.817382812 292.956054688 l 1
 474.512695312 485.627929688 l 1
 287.37890625 484.26171875 l 1
EndSplineSet
EndChar
